<?xml version="1.0" encoding="utf-8"?>
<!-- Generator: Adobe Illustrator 24.3.0, SVG Export Plug-In . SVG Version: 6.00 Build 0)  -->
<svg version="1.1" id="Layer_1" xmlns="http://www.w3.org/2000/svg" xmlns:xlink="http://www.w3.org/1999/xlink" x="0px" y="0px"
	 viewBox="0 0 80 85.2" style="enable-background:new 0 0 80 85.2;" xml:space="preserve">
<style type="text/css">
	.st0{opacity:0.8;fill:#EEEEEE;stroke:#EAEAEA;stroke-width:9.050000e-02;stroke-miterlimit:10;enable-background:new    ;}
	.st1{fill:#FFFFFF;}
	.st2{fill:#E3E3E3;}
	.st3{fill:#EEEEEE;}
	.st4{fill:#637AAA;}
	.st5{fill:#FF8F7F;}
	.st6{fill:#FFAC98;}
	.st7{fill:#E5E8ED;}
	.st8{fill:#CDCED1;}
	.st9{fill:#E1E2E3;}
	.st10{fill:#686868;}
	.st11{fill:#633E00;}
	.st12{fill:#FFBED5;}
	.st13{fill:#44D1FC;}
	.st14{fill:#BCE0E8;}
	.st15{fill:#848484;}
</style>
<path class="st0" d="M251.6,68.5c-1.7-0.4-21.6-3.6-20.1-27.4s3.3-31,11.1-33.6s26.6-15,41.4-3.2s30.7,22.4,24.4,41.2
	c-6.3,18.8-7.4,25.1-23.9,24.2C267.9,68.6,259.5,70.2,251.6,68.5z"/>
<g>
	<path class="st1" d="M261.2,14h21.7c0.1-2.1-0.9-4.2-2.8-5.1c-1.8-1-4.2-0.8-5.9,0.5c-1.5-1.3-3-2.6-4.9-3.2
		c-1.9-0.6-4.2-0.2-5.3,1.4c-0.8,1.1-0.9,2.6-0.5,3.9c-1.7,0-3.4,0-5.1,0.1c-1,0.1-2.3,0.3-2.3,1.3C256.1,14.3,261.2,14,261.2,14z"
		/>
	<path class="st1" d="M255.4,26c-0.4-0.2-0.9-0.2-1.3-0.1c-0.3,0.1-0.5,0.2-0.8,0.2c-0.5,0.1-0.5,0.3-0.7-0.1
		c-0.2-0.5,0.1-1-0.4-1.4c-0.3-0.4-0.8-0.6-1.2-0.6c-0.2,0-0.3,0-0.5,0.1c-0.3-0.8-0.7-1.5-1.3-2.1c-1.2-1.2-3.1-1.7-4.7-1
		c-0.7,0.3-1.4,0.8-1.9,1.4c-0.3,0.3-0.5,0.6-0.7,1c-0.2,0.3-0.3,0.7-0.5,1c-0.5-0.2-0.9-0.4-1.4-0.5c-1-0.3-2-0.3-2.9,0.3
		c-0.7,0.5-1.1,1.5-0.9,2.3c0.1,0.5,0.4,0.9,0.9,0.9c0.7,0,1.4,0,2.1,0c2.5,0,5.1,0,7.6,0c2.5,0,5,0,7.6,0c0.8,0,2.4,0,2.4,0
		S256.2,26.4,255.4,26z"/>
	<path class="st1" d="M287.7,28.8c-0.2-1.2,0.2-2.5,1.1-3.4c1.1-1.1,2.8-1.5,4.3-0.9c0.7,0.3,1.2,0.7,1.7,1.2
		c0.2,0.3,0.4,0.6,0.6,0.9c0.2,0.3,0.2,0.7,0.4,0.9c0.4-0.2,0.8-0.4,1.3-0.5c0.9-0.2,1.8-0.3,2.6,0.3c0.6,0.5,1,1.4,0.8,2.1
		c-0.1,0.3-0.3,0.7-0.6,0.8c-0.1,0-0.2,0-0.3,0c-0.8,0-1.7,0-2.6,0c-1.2,0-2.5,0-3.7,0c-1.1,0-2.3,0-3.4,0c-0.3,0-0.6,0-0.9,0
		c-0.2,0-0.3,0-0.5,0c-0.2,0-0.2,0-0.3-0.2C288,29.7,287.8,29.3,287.7,28.8z"/>
</g>
<g>
	<path class="st2" d="M261.7,65.1c0,0.1,0.2,0.2,0.5,0.2c1.4,0.4,6,0.4,8.3,0.4c3.4,0,7,0.1,10.2-0.1c2.5-0.1,5.4-0.4,2.9-0.8
		c-0.8-0.1-3-0.2-4.1-0.3c-2.6-0.2-5.3-0.3-8-0.2c-2,0-3.9,0.1-5.8,0.2C264,64.6,261.6,64.8,261.7,65.1z"/>
	<g>
		<path id="XMLID_8_" class="st3" d="M259.4,33.1v27.8c0,0.7,0.5,1.2,1.2,1.2h25c0.7,0,1.2-0.5,1.2-1.2v-4.3l0-2.4V27.8
			c0-0.7-0.5-1.2-1.2-1.2h-19.7L259.4,33.1L259.4,33.1z"/>
		<path class="st1" d="M286.9,56.6l0-2.3V28.6c0-0.7-0.5-1.2-1.2-1.2H267l-0.3,0.3v4.9c0,0.7-0.6,1.3-1.3,1.3h-3.9c-0.5,0-1,0.4-1,1
			v26c0,0.7,0.5,1.2,1.2,1.2h24c0.6,0,1.2-0.5,1.2-1.2V56.6z"/>
		<g id="XMLID_7_">
			<path class="st4" d="M259.2,33.1c0,1,0,2.1,0,3.2c0,2.5,0,4.9,0,7.4c0,2.8,0,5.7,0,8.5c0,2.2,0,4.5,0,6.7c0,0.6,0,1.1,0,1.7
				c0,0.1,0,0.2,0,0.3c0,0.8,0.6,1.3,1.3,1.3c1.2,0,2.3,0,3.5,0c2.6,0,5.2,0,7.8,0c2.8,0,5.5,0,8.3,0c1.7,0,3.4,0,5.1,0
				c0.7,0,1.5-0.2,1.8-1c0.1-0.4,0-0.8,0-1.2c0-0.7,0-1.4,0-2.1c0-1.4,0-2.7,0-4.1c0-1.7,0-3.3,0-5c0-2.7,0-5.5,0-8.2
				c0-2.7,0-5.4,0-8.1c0-1.5,0-3,0-4.6c0-0.8-0.5-1.5-1.4-1.5c-0.5,0-1,0-1.4,0c-2.4,0-4.8,0-7.3,0c-2.7,0-5.4,0-8,0
				c-0.8,0-1.6,0-2.4,0c-0.3,0-0.6,0-0.9,0.2c-1.7,1.7-3.4,3.4-5.1,5.1c-0.3,0.3-0.7,0.7-1,1C259.5,32.8,259.2,33,259.2,33.1
				c0,0.2,0.4,0.1,0.4,0c0,0-0.1,0.1,0,0c0,0,0.1-0.1,0.1-0.1c0.2-0.2,0.3-0.3,0.5-0.5c0.5-0.5,1-1,1.6-1.6c1.2-1.2,2.3-2.3,3.5-3.5
				c0.3-0.3,0.5-0.5,0.8-0.8c-0.1,0-0.1,0-0.2,0.1c1.2,0,2.3,0,3.5,0c2.5,0,4.9,0,7.4,0c2.3,0,4.5,0,6.8,0c0.6,0,1.2,0,1.8,0
				c0.1,0,0.2,0,0.3,0c0.6,0,1,0.6,1.1,1.2c0,1.1,0,2.2,0,3.3c0,2.3,0,4.5,0,6.8c0,2.6,0,5.2,0,7.8c0,2.1,0,4.2,0,6.2
				c0,0.8,0,1.7,0,2.5c0,2,0,3.9,0,5.9c0,0.5,0.1,1-0.3,1.3c-0.2,0.2-0.5,0.3-0.8,0.3c-0.5,0-0.9,0-1.4,0c-1.9,0-3.9,0-5.8,0
				c-2.6,0-5.1,0-7.7,0c-2.3,0-4.6,0-6.9,0c-1.1,0-2.1,0-3.2,0c-0.8,0-1.1-0.7-1.1-1.4c0-0.5,0-1,0-1.5c0-1.9,0-3.8,0-5.7
				c0-2.5,0-5.1,0-7.6c0-2.4,0-4.9,0-7.3c0-1.6,0-3.1,0-4.7c0-0.2,0-0.4,0-0.7C259.6,32.9,259.2,33,259.2,33.1z"/>
		</g>
		<path id="XMLID_6_" class="st1" d="M265.9,26.5v5.3c0,0.7-0.6,1.3-1.3,1.3h-5.3L265.9,26.5z"/>
		<g id="XMLID_3_">
			<path class="st4" d="M265.8,26.5c0,1.6,0,3.2,0,4.9c0,0.3,0,0.5-0.1,0.8c-0.2,0.5-0.6,0.7-1.2,0.7c-0.9,0-1.8,0-2.7,0
				c-0.8,0-1.6,0-2.4,0c0,0,0.1,0.1,0.1,0.2c1.9-1.9,3.8-3.8,5.8-5.8c0.3-0.3,0.5-0.5,0.8-0.8C266.2,26.4,265.9,26.4,265.8,26.5
				c-1.9,1.9-3.8,3.8-5.7,5.7c-0.3,0.3-0.5,0.5-0.8,0.8c-0.1,0.1,0,0.2,0.1,0.2c1.7,0,3.4,0,5.1,0c0.9,0,1.7-0.5,1.7-1.5
				c0-0.9,0-1.7,0-2.6c0-0.9,0-1.7,0-2.6C266.1,26.3,265.8,26.4,265.8,26.5z"/>
		</g>
	</g>
	<g>
		<g>
			<path class="st4" d="M267,46.1c3.4,0,6.7,0,10.1,0c0.5,0,1,0,1.4,0c0.1,0,0.4-0.2,0.2-0.2c-3.4,0-6.7,0-10.1,0c-0.5,0-1,0-1.4,0
				C267,45.9,266.8,46.1,267,46.1L267,46.1z"/>
		</g>
		<g>
			<path class="st4" d="M262,53.8c2.5,0,4.9,0,7.4,0c3.9,0,7.8,0,11.7,0c0.9,0,1.8,0,2.7,0c0.2,0,0.3-0.3,0-0.3c-2.5,0-4.9,0-7.4,0
				c-3.9,0-7.8,0-11.7,0c-0.9,0-1.8,0-2.7,0C261.8,53.5,261.7,53.8,262,53.8L262,53.8z"/>
		</g>
		<g>
			<path class="st4" d="M261.9,50.8c2.5,0,4.9,0,7.4,0c3.9,0,7.8,0,11.7,0c0.9,0,1.8,0,2.7,0c0.2,0,0.4-0.2,0.1-0.2
				c-2.5,0-4.9,0-7.4,0c-3.9,0-7.8,0-11.7,0c-0.9,0-1.8,0-2.7,0C261.9,50.5,261.6,50.8,261.9,50.8L261.9,50.8z"/>
		</g>
		<g>
			<path class="st4" d="M262,56.9c3.2,0,6.4,0,9.6,0c0.5,0,0.9,0,1.4,0c0.2,0,0.3-0.3,0-0.3c-3.2,0-6.4,0-9.6,0c-0.4,0-0.9,0-1.4,0
				C261.8,56.6,261.7,56.9,262,56.9L262,56.9z"/>
		</g>
		<g>
			<path class="st4" d="M269,39.8C269,39.8,269,39.8,269,39.8c0.1-0.1,0.2-0.2,0.2-0.2c0.2-0.2,0.5-0.4,0.8-0.5c0.9-0.5,2-0.8,3-0.8
				c1.5,0,3.1,0.4,4.2,1.5c0.1,0.1,0.5-0.1,0.3-0.2c-1.2-1.1-3-1.6-4.6-1.5c-1.5,0-3.2,0.6-4.3,1.7C268.5,39.8,268.9,39.9,269,39.8
				L269,39.8z"/>
		</g>
		<circle class="st4" cx="267.5" cy="36.2" r="0.6"/>
		<circle class="st4" cx="278.5" cy="36.2" r="0.6"/>
	</g>
	<g>
		<path class="st5" d="M271.3,22l-18.2,2.2c-0.7,0.1-1.4-0.4-1.5-1.2l-1-8.4c-0.1-0.7,0.4-1.4,1.2-1.5L270,11
			c0.7-0.1,1.4,0.4,1.5,1.2l1,8.4C272.6,21.3,272.1,21.9,271.3,22z"/>
		<path class="st6" d="M271.3,22l-17.1,2c-0.7,0.1-1.4-0.4-1.5-1.2l-0.9-7.4c-0.1-0.7,0.4-1.4,1.2-1.5l17.1-2
			c0.7-0.1,1.4,0.4,1.5,1.2l0.9,7.4C272.6,21.3,272.1,21.9,271.3,22z"/>
		<g>
			<path class="st4" d="M271.4,21.9c-1.3,0.2-2.6,0.3-4,0.5c-2.6,0.3-5.3,0.6-7.9,0.9c-2,0.2-3.9,0.5-5.8,0.7c-0.1,0-0.3,0-0.4,0
				c-0.7,0.1-1.2-0.4-1.4-1.1c-0.1-0.8-0.2-1.6-0.3-2.4c-0.2-1.3-0.3-2.6-0.5-4c-0.1-0.5-0.1-1-0.2-1.5c0-0.2-0.1-0.5-0.1-0.7
				c0-0.6,0.5-1.1,1.1-1.2c0.2,0,0.4-0.1,0.6-0.1c0.8-0.1,1.7-0.2,2.5-0.3c2.6-0.3,5.2-0.6,7.7-0.9c2.1-0.3,4.3-0.5,6.4-0.8
				c0.6-0.1,1.2-0.2,1.7,0.1c0.7,0.5,0.6,1.7,0.7,2.4c0.3,2.2,0.6,4.5,0.8,6.7C272.4,21.1,272.1,21.8,271.4,21.9
				c-0.2,0-0.3,0.3,0,0.2c0.8-0.1,1.5-0.8,1.4-1.7c0-0.2-0.1-0.4-0.1-0.6c-0.1-1.2-0.3-2.5-0.4-3.7c-0.1-1.2-0.3-2.3-0.4-3.5
				c0-0.3-0.1-0.6-0.2-0.9c-0.3-0.6-0.9-0.9-1.6-0.9c-1.5,0.1-3.1,0.4-4.6,0.6c-2.8,0.3-5.6,0.7-8.3,1c-1.7,0.2-3.4,0.4-5.1,0.6
				c-1,0.1-1.6,0.9-1.5,1.9c0.1,1,0.2,2.1,0.4,3.1c0.2,1.3,0.3,2.6,0.5,4c0.1,0.9,0.1,2,1.1,2.3c0.5,0.2,1.1,0,1.6,0
				c0.9-0.1,1.9-0.2,2.9-0.3c2.7-0.3,5.5-0.6,8.2-1c2-0.2,3.9-0.5,5.9-0.7c0.1,0,0.2,0,0.3,0C271.5,22.1,271.6,21.9,271.4,21.9z"/>
		</g>
		<g>
			<path class="st1" d="M256.8,20.8l-0.1-0.9l-2.3,0.3c-0.3,0-0.5,0-0.7-0.1c-0.2-0.1-0.3-0.3-0.3-0.5c0-0.1,0-0.1,0-0.2
				c0-0.1,0-0.1,0.1-0.2c0-0.1,0.1-0.1,0.1-0.2c0-0.1,0.1-0.1,0.1-0.2l2.1-3.6c0.1-0.2,0.2-0.4,0.3-0.5s0.2-0.2,0.4-0.2
				c0.5-0.1,0.7,0.2,0.8,0.7l0.4,3.6l0.2,0c0.2,0,0.4,0,0.6,0c0.2,0,0.2,0.2,0.3,0.4c0,0.2,0,0.3-0.1,0.4c-0.1,0.1-0.3,0.2-0.5,0.2
				l-0.3,0l0.1,0.9c0,0.2,0,0.4-0.1,0.5s-0.2,0.2-0.4,0.2c-0.2,0-0.3,0-0.4-0.1S256.8,21,256.8,20.8z M254.6,19.2l2-0.2l-0.3-2.7
				L254.6,19.2z"/>
			<path class="st1" d="M263.9,17.2c0.1,0.5,0.1,0.9,0.1,1.3c0,0.4-0.1,0.7-0.2,1c-0.2,0.4-0.4,0.7-0.7,0.9s-0.7,0.4-1.1,0.4
				c-0.5,0.1-0.9,0-1.3-0.2s-0.7-0.5-1-1c-0.1-0.2-0.2-0.5-0.3-0.8c-0.1-0.3-0.1-0.6-0.2-1c-0.1-0.5-0.1-0.9-0.1-1.3
				c0-0.4,0-0.7,0.1-1c0.1-0.5,0.4-0.8,0.7-1.1c0.3-0.3,0.7-0.4,1.2-0.5c0.3,0,0.6,0,0.9,0.1c0.3,0.1,0.5,0.2,0.7,0.4
				c0.2,0.2,0.4,0.4,0.6,0.7C263.6,15.5,263.8,16.3,263.9,17.2z M262.7,17.2c-0.1-0.6-0.2-1-0.3-1.4c-0.1-0.4-0.3-0.6-0.4-0.8
				c-0.2-0.2-0.4-0.2-0.7-0.2c-0.4,0-0.7,0.3-0.8,0.7c-0.1,0.4-0.1,1.1,0,1.9c0.1,0.6,0.2,1,0.3,1.4c0.1,0.4,0.3,0.6,0.4,0.8
				c0.2,0.2,0.4,0.2,0.7,0.2c0.3,0,0.5-0.2,0.6-0.4c0.1-0.2,0.2-0.5,0.2-0.9C262.8,18.3,262.7,17.8,262.7,17.2z"/>
			<path class="st1" d="M268,19.5l-0.1-0.9l-2.3,0.3c-0.3,0-0.5,0-0.7-0.1s-0.3-0.3-0.3-0.5c0-0.1,0-0.1,0-0.2c0-0.1,0-0.1,0.1-0.2
				c0-0.1,0.1-0.1,0.1-0.2c0-0.1,0.1-0.1,0.1-0.2l2.1-3.6c0.1-0.2,0.2-0.4,0.3-0.5c0.1-0.1,0.2-0.2,0.4-0.2c0.5-0.1,0.7,0.2,0.8,0.7
				l0.4,3.6l0.2,0c0.2,0,0.4,0,0.6,0c0.1,0,0.2,0.2,0.3,0.4c0,0.2,0,0.3-0.1,0.4c-0.1,0.1-0.3,0.2-0.5,0.2l-0.3,0l0.1,0.9
				c0,0.2,0,0.4-0.1,0.5s-0.2,0.2-0.4,0.2c-0.2,0-0.3,0-0.4-0.1C268.1,19.9,268,19.7,268,19.5z M265.8,17.8l2-0.2l-0.3-2.7
				L265.8,17.8z"/>
		</g>
	</g>
	<g>
		<path class="st4" d="M286.7,40.2c0,0.8,0.5,1.6,0.9,2.2c1,1.4,2.7,2,4.4,2.2c0.2,0,0.4-0.2,0.1-0.2c-1.6-0.2-3.2-0.8-4.2-2.2
			c-0.4-0.5-0.9-1.3-0.9-2C287.1,40,286.7,40.1,286.7,40.2L286.7,40.2z"/>
	</g>
	<g>
		<path class="st4" d="M259.4,40.2c-0.7,0-1.5-0.4-2.1-0.7c-1.5-0.8-2.8-2-3.8-3.4c-0.1-0.2-0.5,0-0.4,0.2c1,1.4,2.3,2.7,3.9,3.5
			c0.7,0.3,1.5,0.8,2.3,0.8C259.5,40.5,259.7,40.2,259.4,40.2L259.4,40.2z"/>
	</g>
	<g>
		<path class="st4" d="M253.9,40.1c-0.2-2.1-0.5-4.2-0.7-6.3c-0.4-3.4-0.8-6.7-1.2-10c-0.1-0.8-0.2-1.5-0.3-2.3c0-0.1-0.4,0-0.4,0.1
			c0.2,2.1,0.5,4.2,0.7,6.3c0.4,3.3,0.8,6.7,1.2,10c0.1,0.8,0.2,1.5,0.3,2.3C253.5,40.3,253.9,40.2,253.9,40.1L253.9,40.1z"/>
	</g>
	<g>
		<g>
			<path class="st4" d="M271.8,62.1c0,1,0,2,0,2.9c0,0.2,0.4,0.1,0.4,0c0-1,0-2,0-2.9C272.2,61.9,271.8,62,271.8,62.1L271.8,62.1z"
				/>
		</g>
		<g>
			<path class="st4" d="M274.1,62.1c0,1,0,2,0,2.9c0,0.2,0.4,0.1,0.4,0c0-1,0-2,0-2.9C274.5,61.9,274.1,62,274.1,62.1L274.1,62.1z"
				/>
		</g>
	</g>
</g>
<g>
	<path class="st7" d="M31.4,33.9c0,0-3,0.3-4.4,0c-1.4-0.3-4-1.4-4.4-1.1s0.2,0.8,0.2,0.8s-0.5-0.1-0.7,0.3
		c-0.1,0.4,0.3,0.7,0.3,0.7s-0.3-0.1-0.4,0.3c-0.1,0.4,4.2,4.4,4.5,4.6C26.6,39.5,29.3,39.6,31.4,33.9z"/>
	<g>
		<path class="st8" d="M30,34c-0.5,1-1.3,1.8-2.1,2.3c-1.8,1.1-4.3-0.6-5.6-1.7c0,0-0.1,0.1-0.1,0.1c-0.2,0.9,4.3,4,4.7,4.5
			c0,0,2.8,0.4,4.7-5.3C31.5,33.9,30.9,34,30,34z"/>
	</g>
	<g>
		<path class="st7" d="M58.5,26.9c-0.5-0.5-2.1-0.5-2.1-0.5c-4.4-5.9-12.5-7-12.5-7s-0.3-1-1-0.9c-0.6,0.2-1.8,0.9-2.2,1.4
			s-2.8,2.5-3.8,3c-1,0.5-3.5,2.1-3.6,3.3c0,0-1,1.5-0.8,2.9c0,0,0.1,0,0,0.2c0,0,0,0,0,0c-0.2,0.5-0.3,1.3,0,2.3l-0.2,1.1
			c0,0-4,4.2-5.8,6.6c-3.1,4-4.8,11.2-5.1,14.5s-1.5,7.8-1.1,8.1c0.4,0.3,0.5,0,0.6-0.2c0,0.1-0.1,0.5,0.2,0.6
			c0.3,0.1,0.5-0.2,0.5-0.3c0,0.1-0.1,0.5,0.2,0.5c0.5,0,5.5-5.1,5.5-5.1l1.1,0.7c2,1.1,5.6,2.7,10.1,3.4l0.8,0.2c0,0-0.3,8,0,8.3
			c0.3,0.3,0.7-0.1,0.7-0.1s0.1,0.4,0.3,0.5c0.2,0.1,0.6-0.4,0.6-0.4s0,0.4,0.3,0.4c0.4,0,4.2-4.3,5.3-7.8l1-1.9
			c0,0,2.9-7.1,3.9-10.3c0,0,1.2-4.5,1.9-5.9c0.3-0.6,1.6-2.3,1.6-2.3c0.6-0.1,1-0.4,1.3-0.7l0.5-0.6c1.7-1.2,1.4-4.5,1.6-6
			C58.6,33.6,59,27.5,58.5,26.9z"/>
	</g>
	<path class="st7" d="M51.1,82.6c0,0,0.4,1.4,2,1.4c0.9,0,2.3-1.6,2.5-2.1c0.8-2,1.7-4.1,1.1-7.3c-1.1-5.6-4.4-10.3-6.6-13.2
		c-0.9-1.1-1.4-3.1-1.4-3.1l-2.6,6c0,0,3.3,6.3,3.6,9.9s-1.4,7.4,0.4,8.7v-1.5c0,0-0.2,2,1.5,2.7L51.1,82.6z"/>
	<g>
		<path class="st8" d="M49.7,69.4c-2.3-4.9-1.3-8-0.5-9.4c-0.3-0.7-0.5-1.3-0.5-1.3L46.3,64c0,0,3.3,6.3,3.6,9.9
			c0.4,3.6-1.4,7.4,0.4,8.7v-1c0-0.3,0-0.5,0-0.5v0.5c0,0.1,0,0.2,0,0.2C50.4,78.7,52.2,74.8,49.7,69.4z"/>
	</g>
	<path class="st7" d="M50.4,50.2c4.9,0.8,10.5-1.8,10.6-1.9c0.3-0.3-0.2-0.6-0.2-0.6s0.5-0.1,0.6-0.4c0-0.3-0.5-0.6-0.5-0.6
		c0.3,0,0.6-0.5,0.3-0.7c-0.3-0.2-2.3-0.1-4.2-0.6c-1.9-0.5-3.2-2.2-3.2-2.2s-2.2,0.6-3,2.8C50,48.1,50.4,50.2,50.4,50.2z"/>
	<g>
		<path class="st8" d="M61,47.5c-1.2,0.5-3.3,1.3-4.3,1.4c-4.4,0.2-3.4-4.4-2.9-6.1c0,0,0,0,0,0s-2.2,0.6-3,2.8
			c-0.8,2.2-0.5,4.3-0.5,4.3c4.9,0.8,10.5-1.8,10.6-1.9C61.2,47.8,61.1,47.6,61,47.5z"/>
	</g>
	<path class="st8" d="M43.4,19.7c-0.7,0.2-1-0.3-1-0.3S42,20,42.5,20.2C43.1,20.5,43.4,19.7,43.4,19.7z"/>
	<path class="st8" d="M58.3,27.8c-1,0.3-1.2-0.5-1.2-0.5s-0.4,0.9,0.1,1.2C57.7,28.7,58.3,27.8,58.3,27.8z"/>
	<g>
		<path class="st8" d="M40.8,34c0,0,0.6,0.9,2.1,1.1l-1,0.2c0,0,1.3,0.4,2.1,0.3l-0.3,0.5c0,0,0.3,0.1,1.4,0c0,0-1.3,1-2.9,0
			C40.6,35.2,40.8,34,40.8,34z"/>
	</g>
	<path class="st8" d="M53.9,43.8c0.2-0.3,0.5-0.7,0.7-1c-1.4,0-5,0.7-12.8-3.6c-6.6-3.6-9.3-6.5-9.3-6.5s0,0,0,0l0,0.1
		c0,0-0.3,0.3-0.7,0.7C33,34.4,43.3,43.4,53.9,43.8z"/>
	<path class="st8" d="M55,39.5c-2.6,2-4.6,0.5-4.6,0.5s-0.2,5-0.8,7.5c-1,3.8-3.3,12.3-4.6,14.9c-0.7,1.4-2.6,5.5-3.6,7.7
		c1-0.8,4.1-4.5,5-7.6l1-1.9c0,0,2.9-7.1,3.9-10.3c0,0,1.2-4.5,1.9-5.9c0.3-0.6,1.6-2.3,1.6-2.3c0.6-0.1,1-0.4,1.3-0.7l0.5-0.6
		c1.7-1.2,1.4-4.5,1.6-6c0.1-1,0.4-5.2,0.2-7.1c-0.3,0.3-0.6,0.6-0.8,0.6C57.6,28.2,57.6,37.5,55,39.5z"/>
	<g>
		<path class="st8" d="M24.5,58.7c-0.7,0.9-1.9,2.6-2.5,3.7c0.9-0.5,5.4-5.1,5.4-5.1S27,55.6,24.5,58.7z"/>
	</g>
	<g>
		<path class="st1" d="M45.9,58.7c-1.4,4.1-6.4,3.1-6.4,3.1s-7.7-1.4-11.9-4.3c-5.6-3.8-4.1-6.6-3.7-8.5c1-5.1,4.9-15.2,15.9-10.4
			C50.5,43.1,47.7,53.3,45.9,58.7z"/>
	</g>
	<g>
		<path class="st9" d="M59.3,34.1c0.6-1.4,0.9-2.9,1.1-4.3c0.2-1.4,0.2-2.7,0.2-3.7c0-1.1,0-2,0-2.6c0-0.6,0.1-1,0.3-1.1
			c0.2-0.1,0.4,0.2,0.7,0.8c0.3,0.6,0.6,1.5,0.8,2.6c0.2,1.1,0.4,2.5,0.3,4.1c-0.1,1.6-0.4,3.3-1.1,5.1c-0.4,0.9-0.8,1.7-1.3,2.4
			c-0.5,0.7-1.1,1.4-1.7,1.9c-1.2,1.1-2.5,1.8-3.6,2.2c-1.1,0.4-2.1,0.6-2.7,0.6c-0.7,0-1,0-1.1-0.2c0-0.2,0.3-0.4,0.8-0.7
			c0.5-0.3,1.3-0.7,2.2-1.3c0.9-0.6,1.9-1.3,2.8-2.3C57.9,36.7,58.7,35.5,59.3,34.1z"/>
	</g>
</g>
<g>
	<g>
		<path class="st8" d="M46.2,20.4c0.3-0.1,0.8,0.2,1,0.3c0.3,0.1,0.6,0.3,1,0.4c0-0.1,0-0.2,0-0.3c-0.9,0.1-1.8,0-2.6,0.2
			c-0.2,0-0.1,0.3,0,0.3c0.6,0.2,1.2,0.4,1.7,0.7c0-0.1,0-0.2,0-0.3c-0.5,0.1-0.9,0.1-1.4,0.2c-0.2,0-0.1,0.2,0,0.3
			c0.3,0.2,0.5,0.5,0.8,0.6c0-0.1,0.1-0.2,0.1-0.3c-0.4-0.1-0.9,0-1.1,0.4c-0.2,0.4,0.4,0.7,0.7,0.8c0.2,0.1,0.3-0.3,0.1-0.3
			c-0.2-0.1-0.7-0.3-0.2-0.5c0.2-0.1,0.4,0,0.6,0c0.2,0,0.2-0.3,0.1-0.3c-0.3-0.2-0.6-0.4-0.8-0.6c0,0.1,0,0.2,0,0.3
			c0.5-0.1,0.9-0.1,1.4-0.2c0.2,0,0.2-0.3,0-0.3c-0.6-0.3-1.2-0.5-1.8-0.7c0,0.1,0,0.2,0,0.3c0.9-0.1,1.8,0,2.6-0.2
			c0.2,0,0.2-0.3,0-0.3c-0.6-0.2-1.5-0.9-2.2-0.7C45.8,20.1,45.9,20.5,46.2,20.4L46.2,20.4z"/>
	</g>
	<g>
		<path class="st8" d="M53,23.8c0.4,0.6,1.1,0.9,1.4,1.5c0.1-0.1,0.1-0.2,0.2-0.3c-0.6-0.2-1.2-0.5-1.8-0.7c-0.2,0-0.3,0.2-0.1,0.3
			c0.5,0.2,1.1,0.8,1.2,1.3c0.1-0.1,0.2-0.1,0.3-0.2c-0.5-0.2-0.9-0.5-1.4-0.7c-0.2,0-0.3,0.2-0.2,0.3c0.2,0.3,0.4,0.6,0.6,0.9
			c0.1-0.1,0.1-0.2,0.2-0.3c-0.3-0.1-0.5,0-0.7,0c-0.1,0-0.2,0.1-0.1,0.3c0.2,0.3,0,0.3-0.1,0.5c-0.1,0.2,0.3,0.3,0.3,0.1
			c0-0.1,0.2-0.1,0.2-0.3c0-0.2,0-0.3-0.1-0.5c0,0.1-0.1,0.2-0.1,0.3c0.2,0,0.4-0.1,0.6,0c0.2,0,0.3-0.2,0.2-0.3
			c-0.2-0.3-0.4-0.6-0.6-0.9c-0.1,0.1-0.1,0.2-0.2,0.3c0.5,0.1,0.9,0.4,1.3,0.6c0.1,0.1,0.3,0,0.3-0.2c-0.2-0.6-0.9-1.2-1.4-1.5
			c0,0.1-0.1,0.2-0.1,0.3c0.6,0.2,1.2,0.5,1.8,0.7c0.2,0,0.3-0.1,0.2-0.3c-0.3-0.7-1-1-1.5-1.6C53.1,23.4,52.9,23.6,53,23.8L53,23.8
			z"/>
	</g>
	<g>
		<path class="st8" d="M50,21.8c0.7,0.1,1.2,0.5,1.7,0.8c0-0.1,0-0.2,0-0.3c-0.7,0.1-1.4-0.1-2.1-0.2c-0.2,0-0.2,0.2-0.1,0.3
			c0.6,0.4,1.3,0.5,1.9,1c0-0.1,0.1-0.2,0.1-0.3c-0.7,0.1-1.4-0.1-2-0.2c-0.2,0-0.2,0.2-0.1,0.3c0.4,0.2,0.8,0.5,1.2,0.7
			c0-0.1,0.1-0.2,0.1-0.3c-0.5,0-1.1,0-1.6,0c-0.2,0-0.2,0.2-0.1,0.3c0.2,0.2,0.4,0.4,0.7,0.6c0-0.1,0-0.2,0-0.3
			c-0.2,0-0.4,0.1-0.6,0.2c-0.2,0-0.2,0.2,0,0.3c0.2,0.1,0.4,0.3,0.6,0.4c0.2,0.1,0.4-0.2,0.2-0.3c-0.2-0.1-0.4-0.3-0.6-0.4
			c0,0.1,0,0.2,0,0.3c0.2,0,0.4-0.1,0.6-0.2c0.2,0,0.1-0.2,0-0.3c-0.2-0.2-0.4-0.4-0.7-0.6c0,0.1-0.1,0.2-0.1,0.3c0.5,0,1.1,0,1.6,0
			c0.1,0,0.2-0.2,0.1-0.3c-0.4-0.3-0.8-0.6-1.3-0.8c0,0.1-0.1,0.2-0.1,0.3c0.7,0,1.4,0.3,2.1,0.1c0.1,0,0.2-0.2,0.1-0.3
			c-0.6-0.5-1.3-0.6-1.9-1c0,0.1-0.1,0.2-0.1,0.3c0.7,0,1.5,0.2,2.2,0.1c0.2,0,0.1-0.2,0-0.3c-0.6-0.4-1.1-0.7-1.8-0.9
			C49.9,21.4,49.8,21.7,50,21.8L50,21.8z"/>
	</g>
	<g>
		<path class="st8" d="M23.2,35.7c0.4,0.3,0.8,0.6,1.2,0.7c0.1,0,0.2-0.1,0.2-0.2c0-0.6-0.3-1.1-0.7-1.5c-0.2-0.2-0.4,0.1-0.2,0.2
			c0.4,0.4,0.8,0.6,1.3,0.4c0.1,0,0.2-0.2,0.1-0.3c-0.2-0.2-0.3-0.4-0.5-0.5c0,0.1-0.1,0.2-0.1,0.3c0.2,0,0.4,0,0.6,0
			c0.1,0,0.2-0.1,0.1-0.3c-0.1-0.2-0.2-0.4-0.3-0.6c0,0.1-0.1,0.2-0.1,0.3c0.3,0,0.5,0,0.8-0.1c0.1,0,0.2-0.1,0.1-0.3
			c-0.1-0.1-0.2-0.3-0.2-0.4c-0.1-0.2-0.4-0.1-0.3,0.1c0.1,0.2,0.2,0.3,0.2,0.5c0-0.1,0.1-0.2,0.1-0.3c-0.3,0-0.6,0.1-0.8,0.1
			c-0.1,0-0.2,0.2-0.1,0.3c0.1,0.2,0.2,0.4,0.3,0.6c0-0.1,0.1-0.2,0.1-0.3c-0.2,0-0.4,0-0.6,0c-0.1,0-0.2,0.2-0.1,0.3
			c0.2,0.2,0.3,0.4,0.5,0.5c0-0.1,0.1-0.2,0.1-0.3c-0.4,0.1-0.7,0-1-0.3c-0.1,0.1-0.2,0.2-0.2,0.2c0.3,0.4,0.6,0.7,0.6,1.3
			c0.1-0.1,0.1-0.1,0.2-0.2c-0.4-0.1-0.8-0.3-1.1-0.6C23.3,35.3,23,35.5,23.2,35.7L23.2,35.7z"/>
	</g>
	<g>
		<path class="st8" d="M25.4,37.6c-0.1-0.1-0.2,0.1-0.1,0.2c0.1,0.1,0.2,0.1,0.4,0.2c0.2,0.1,0.4,0.3,0.6,0.3c0.1,0,0.2,0,0.2-0.1
			c0.1-0.7-0.3-1.3-0.8-1.7c-0.1,0.1-0.1,0.2-0.2,0.3c0.5,0.3,1.1,0.7,1.7,0.6c0.1,0,0.2-0.1,0.2-0.2c0-0.6-0.4-1-0.8-1.5
			c-0.1,0.1-0.1,0.2-0.2,0.3c0.4,0.3,0.8,0.3,1.2,0.3c0.2,0,0.2-0.2,0.1-0.3c-0.2-0.2-0.3-0.5-0.5-0.7c-0.1,0.1-0.1,0.2-0.2,0.3
			c0.3,0.1,0.6,0.1,0.9,0.1c0.1,0,0.2-0.1,0.1-0.3c-0.3-0.4-0.5-0.6-1-0.8c0,0.1,0,0.2,0,0.3c0.2,0,0.5-0.1,0.7,0
			c0.1,0,0.2,0,0.2-0.1c0.1-0.2,0-0.3-0.2-0.4c0,0.1-0.1,0.2-0.1,0.3c0.4,0,0.5,0,0.7-0.3c0.1-0.2-0.1-0.4-0.2-0.2
			c-0.1,0.2-0.3,0.2-0.5,0.2c-0.2,0-0.2,0.2-0.1,0.3c0,0,0,0,0,0c0.1,0,0.1-0.1,0.2-0.1c-0.3-0.1-0.5,0-0.8,0c-0.2,0-0.2,0.3,0,0.3
			c0.3,0.1,0.5,0.3,0.7,0.6c0-0.1,0.1-0.2,0.1-0.3c-0.3,0-0.5,0-0.8-0.1c-0.2-0.1-0.3,0.2-0.2,0.3c0.2,0.2,0.4,0.5,0.5,0.7
			c0-0.1,0.1-0.2,0.1-0.3c-0.4,0-0.7-0.1-1.1-0.3c-0.2-0.1-0.3,0.1-0.2,0.3c0.3,0.4,0.7,0.7,0.7,1.3c0.1-0.1,0.1-0.1,0.2-0.2
			c-0.6,0-1.1-0.3-1.5-0.6c-0.2-0.1-0.4,0.1-0.2,0.3c0.4,0.3,0.8,0.8,0.7,1.4c0.1,0,0.1-0.1,0.2-0.1c-0.4-0.1-0.7-0.6-1.2-0.6
			c-0.1,0-0.1,0-0.1,0.1c0,0.1,0,0.2,0,0.3C25.2,37.9,25.5,37.7,25.4,37.6L25.4,37.6z"/>
	</g>
	<g>
		<path class="st8" d="M54.3,44.5c0.1,0.6,0.5,1.1,1,1.5c0-0.1,0.1-0.2,0.1-0.3c-0.5,0-1,0-1.5,0c-0.2,0-0.2,0.2-0.1,0.3
			c0.6,0.3,1.2,0.6,1.8,0.8c0-0.1,0-0.2,0-0.3c-0.8,0-2-0.3-2.4,0.5c-0.1,0.1,0,0.2,0.1,0.3c0.5,0.2,1.1,0.2,1.7,0.3
			c0-0.1,0-0.2,0-0.3c-0.7,0-1.4,0.3-1.9,0.7c-0.1,0.1-0.1,0.2,0,0.3c0.6,0.3,1.2,0.4,1.8,0.4c0-0.1,0-0.2,0-0.3
			c-0.8,0-1.7-0.2-2.2,0.6c-0.1,0.1,0,0.2,0.1,0.3c0.5,0.1,1,0.2,1.6,0.2c0-0.1,0-0.2,0-0.3c-0.5,0.1-0.9,0.2-1.4,0.5
			c-0.1,0.1-0.1,0.3,0,0.3c0.4,0.1,0.8,0.1,1.3,0.2c0.2,0,0.2-0.3,0-0.3c-0.4,0-0.8-0.1-1.2-0.1c0,0.1,0,0.2,0,0.3
			c0.4-0.2,0.8-0.4,1.3-0.4c0.2,0,0.1-0.3,0-0.3c-0.5,0-1-0.1-1.5-0.2c0,0.1,0.1,0.2,0.1,0.3c0.3-0.6,1.2-0.5,1.9-0.5
			c0.2,0,0.2-0.3,0-0.3c-0.6,0-1.1-0.1-1.6-0.4c0,0.1,0,0.2,0,0.3c0.5-0.4,1-0.7,1.6-0.6c0.2,0,0.2-0.3,0-0.3
			c-0.5-0.1-1.1-0.1-1.6-0.3c0,0.1,0.1,0.2,0.1,0.3c0.3-0.7,1.5-0.4,2.1-0.4c0.2,0,0.2-0.3,0-0.3c-0.6-0.2-1.2-0.4-1.7-0.8
			c0,0.1-0.1,0.2-0.1,0.3c0.5,0,1,0,1.5,0c0.1,0,0.2-0.2,0.1-0.3c-0.4-0.4-0.8-0.8-0.9-1.3C54.6,44.2,54.3,44.2,54.3,44.5L54.3,44.5
			z"/>
	</g>
	<g>
		<path class="st8" d="M58.9,45.8c-0.4-0.1-1.2-0.1-1.3,0.4c-0.1,0.6,0.5,0.7,0.9,0.7c0-0.1,0-0.2,0-0.3c-0.5,0-1,0.2-1.5,0.6
			c-0.1,0.1-0.1,0.2,0,0.3c0.5,0.5,1.1,0.4,1.7,0.4c0-0.1-0.1-0.2-0.1-0.3c-0.4,0.2-0.8,0.4-1,0.7c-0.1,0.1,0,0.3,0.1,0.3
			c0.3,0,0.6,0.1,0.8,0.1c0-0.1,0-0.2,0-0.3c-0.4,0.1-0.7,0.3-1,0.6c-0.1,0.1-0.1,0.3,0,0.3c0.3,0.1,0.6,0.1,0.9,0.1
			c0.2,0,0.2-0.3,0-0.3c-0.3,0-0.5,0-0.8-0.1c0,0.1,0,0.2,0,0.3c0.3-0.2,0.6-0.4,1-0.5c0.2,0,0.1-0.3,0-0.3c-0.3,0-0.6-0.1-0.8-0.1
			c0,0.1,0.1,0.2,0.1,0.3c0.3-0.3,0.6-0.5,1-0.7c0.2-0.1,0.1-0.3-0.1-0.3c-0.5,0-1.1,0.1-1.5-0.3c0,0.1,0,0.2,0,0.3
			c0.4-0.3,0.8-0.5,1.3-0.5c0.2,0,0.2-0.4,0-0.3c-0.1,0-0.7,0-0.6-0.2c0.1-0.3,0.6-0.2,0.9-0.2C59,46.2,59.1,45.8,58.9,45.8
			L58.9,45.8z"/>
	</g>
	<g>
		<path class="st8" d="M49.9,53.3c-0.4,0.6-0.7,1.3-1.3,1.7c0.1,0.1,0.2,0.1,0.3,0.2c0.1-0.7,0.4-1.3,0.7-1.9
			c0.1-0.2-0.3-0.3-0.3-0.1c-0.2,0.6-0.6,1.2-1.1,1.7c0.1,0,0.2,0.1,0.3,0.1c-0.1-0.4,0.1-0.8,0.3-1.2c0.1-0.2-0.2-0.3-0.3-0.2
			c-0.2,0.2-0.4,0.4-0.5,0.6c0.1,0,0.2,0,0.3,0c-0.1-0.2,0-0.4,0.1-0.6c0.1-0.2-0.2-0.4-0.3-0.2c-0.2,0.3-0.3,0.5-0.2,0.8
			c0.1,0.1,0.2,0.2,0.3,0c0.2-0.2,0.4-0.4,0.5-0.6c-0.1-0.1-0.2-0.1-0.3-0.2c-0.2,0.4-0.4,0.9-0.3,1.4c0,0.2,0.2,0.2,0.3,0.1
			c0.6-0.5,0.9-1.2,1.2-1.8c-0.1,0-0.2-0.1-0.3-0.1c-0.2,0.6-0.6,1.2-0.7,1.9c0,0.1,0.1,0.3,0.3,0.2c0.7-0.4,1-1.2,1.4-1.8
			C50.3,53.3,50,53.2,49.9,53.3L49.9,53.3z"/>
	</g>
	<g>
		<path class="st8" d="M47.9,58.4c-0.2,0.6-0.5,1.2-1,1.6c0.1,0,0.2,0.1,0.3,0.1c-0.1-0.7,0.2-1.3,0.4-1.9c0.1-0.2-0.2-0.4-0.3-0.2
			c-0.3,0.5-0.7,1.1-1.1,1.6c0.1,0,0.2,0.1,0.3,0.1c0-0.5,0.2-0.9,0.4-1.3c0.1-0.2-0.2-0.3-0.3-0.1c-0.1,0.2-0.3,0.5-0.5,0.6
			c0.1,0,0.1,0,0.2,0c0,0,0,0,0,0c-0.2-0.2-0.4,0.1-0.2,0.2c0,0,0,0,0,0c0.1,0.1,0.1,0.1,0.2,0c0.2-0.2,0.4-0.5,0.6-0.8
			c-0.1,0-0.2-0.1-0.3-0.1c-0.2,0.5-0.4,0.9-0.4,1.4c0,0.1,0.2,0.2,0.3,0.1c0.4-0.5,0.8-1.1,1.1-1.7c-0.1-0.1-0.2-0.1-0.3-0.2
			c-0.3,0.7-0.6,1.4-0.5,2.1c0,0.1,0.2,0.2,0.3,0.1c0.6-0.4,0.9-1.1,1.2-1.8C48.3,58.3,47.9,58.2,47.9,58.4L47.9,58.4z"/>
	</g>
	<g>
		<path class="st8" d="M21.7,55.5c-0.4,0.5-0.6,1-0.6,1.6c0,0.1,0.1,0.2,0.2,0.2c0.4-0.2,0.8-0.4,1.1-0.7c-0.1-0.1-0.2-0.1-0.3-0.2
			c-0.1,0.3-0.1,0.5-0.2,0.8c0,0.1,0.1,0.2,0.2,0.2c0.4-0.1,0.7-0.2,1-0.4c-0.1-0.1-0.2-0.2-0.2-0.2c-0.1,0.3-0.2,0.6-0.2,0.9
			c0,0.1,0.1,0.2,0.2,0.2c0.5,0,0.9-0.2,1.2-0.4c-0.1-0.1-0.2-0.2-0.2-0.2c-0.1,0.2-0.1,0.5-0.2,0.7c-0.1,0.1,0,0.3,0.1,0.3
			c0.5,0,1-0.2,1.4-0.5c-0.1-0.1-0.1-0.2-0.2-0.3c-0.4,0.3-0.7,0.7-0.8,1.2c0,0.1,0.1,0.2,0.2,0.2c0.4-0.1,0.8-0.1,1.2-0.4
			c-0.1-0.1-0.2-0.1-0.3-0.2c-0.1,0.2-0.1,0.3-0.2,0.5c0,0.1,0,0.2,0.1,0.2c0.5,0.1,0.9-0.1,1.2-0.4c0.2-0.1-0.1-0.4-0.2-0.2
			c-0.3,0.2-0.6,0.4-0.9,0.3c0,0.1,0.1,0.1,0.1,0.2c0.1-0.2,0.1-0.3,0.2-0.5c0.1-0.2-0.2-0.3-0.3-0.2c-0.3,0.2-0.6,0.3-1,0.3
			c0.1,0.1,0.1,0.1,0.2,0.2c0.1-0.5,0.4-0.8,0.7-1.1c0.1-0.1-0.1-0.4-0.2-0.3c-0.4,0.3-0.8,0.4-1.2,0.4c0,0.1,0.1,0.2,0.1,0.3
			c0.1-0.2,0.1-0.5,0.2-0.7c0.1-0.1-0.1-0.3-0.2-0.2c-0.3,0.2-0.7,0.3-1.1,0.4c0.1,0.1,0.1,0.1,0.2,0.2c0.1-0.3,0.1-0.6,0.2-0.8
			c0.1-0.1-0.1-0.3-0.2-0.2c-0.3,0.2-0.6,0.3-1,0.4c0.1,0.1,0.1,0.1,0.2,0.2c0.1-0.3,0.1-0.5,0.2-0.8c0-0.2-0.2-0.3-0.3-0.2
			c-0.3,0.3-0.6,0.5-0.9,0.6c0.1,0.1,0.1,0.1,0.2,0.2c0-0.5,0.1-1,0.5-1.3C22.1,55.5,21.9,55.3,21.7,55.5L21.7,55.5z"/>
	</g>
	<g>
		<path class="st8" d="M20.9,58.8c-0.2,0.5-0.3,0.9-0.3,1.4c0,0.1,0.1,0.2,0.2,0.2c0.6-0.1,1-0.5,1.4-0.9c-0.1-0.1-0.2-0.1-0.3-0.2
			c-0.1,0.3-0.2,0.6-0.2,0.8c0,0.1,0.1,0.2,0.2,0.2c0.4-0.1,0.6-0.2,0.9-0.4c-0.1-0.1-0.2-0.1-0.3-0.2c-0.1,0.3-0.1,0.6-0.2,0.8
			c0,0.1,0.1,0.2,0.2,0.2c0.4-0.1,0.7-0.1,1-0.4c-0.1-0.1-0.2-0.1-0.3-0.2c-0.1,0.2-0.2,0.4-0.3,0.5c-0.1,0.1,0.1,0.3,0.2,0.3
			c0.1,0,0.3-0.1,0.4,0c0-0.1,0-0.2,0-0.3c0,0,0,0,0,0c-0.2,0.2,0.1,0.4,0.2,0.2c0,0,0,0,0,0c0.1-0.1,0.1-0.2,0-0.3
			c-0.2-0.1-0.5,0-0.7,0c0.1,0.1,0.1,0.2,0.2,0.3c0.1-0.2,0.2-0.4,0.3-0.5c0.1-0.2-0.1-0.4-0.3-0.2c-0.2,0.3-0.5,0.3-0.8,0.3
			c0.1,0.1,0.1,0.1,0.2,0.2c0.1-0.3,0.1-0.6,0.2-0.8c0-0.2-0.2-0.3-0.3-0.2c-0.3,0.2-0.5,0.3-0.8,0.3c0.1,0.1,0.1,0.1,0.2,0.2
			c0.1-0.3,0.1-0.6,0.2-0.8c0.1-0.2-0.2-0.3-0.3-0.2c-0.3,0.3-0.7,0.8-1.2,0.8c0.1,0.1,0.1,0.1,0.2,0.2c0-0.5,0.2-0.9,0.3-1.3
			C21.3,58.6,21,58.6,20.9,58.8L20.9,58.8z"/>
	</g>
	<g>
		<path class="st8" d="M39.9,63c-0.2,0.7-0.3,1.5,0,2.1c0.1,0.1,0.2,0.1,0.3,0c0.5-0.4,0.8-0.9,1-1.5c-0.1,0-0.2-0.1-0.3-0.1
			c0,0.6,0,1.2,0.1,1.8c0,0.1,0.2,0.2,0.3,0.1c0.4-0.3,0.6-0.7,0.7-1.2c-0.1,0-0.2-0.1-0.3-0.1c-0.1,0.4,0,0.7,0.1,1.1
			c0,0.1,0.2,0.2,0.3,0.1c0.3-0.3,0.5-0.5,0.7-0.8c-0.1,0-0.2-0.1-0.3-0.1c-0.1,0.4,0,0.8,0,1.2c0,0.2,0.2,0.2,0.3,0.1
			c0.2-0.2,0.5-0.3,0.8-0.5c-0.1-0.1-0.2-0.1-0.3-0.2c-0.1,0.3-0.1,0.6-0.1,1c0,0.1,0.1,0.2,0.2,0.2c0.5-0.2,0.9-0.6,1.3-1
			c-0.1,0-0.2-0.1-0.3-0.1c0.2,0.4,0.3,0.4,0.6,0.2c-0.1,0-0.2-0.1-0.3-0.1c0,0.1,0,0.2,0,0.2c0,0.1,0.1,0.2,0.3,0.1
			c0.2-0.1,0.3-0.2,0.5-0.4c0.2-0.2-0.1-0.4-0.2-0.2c-0.1,0.2-0.2,0.3-0.4,0.4c0.1,0,0.2,0.1,0.3,0.1c0-0.1,0-0.2,0-0.2
			c0-0.1-0.1-0.2-0.3-0.1c-0.1,0.1,0,0.2-0.1,0c0-0.1-0.2-0.2-0.3-0.1c-0.4,0.3-0.7,0.7-1.2,0.9c0.1,0.1,0.1,0.1,0.2,0.2
			c0-0.3,0-0.6,0.1-0.9c0.1-0.2-0.2-0.3-0.3-0.2c-0.2,0.2-0.5,0.3-0.8,0.5c0.1,0,0.2,0.1,0.3,0.1c0-0.4-0.1-0.7,0-1.1
			c0-0.2-0.2-0.3-0.3-0.1c-0.2,0.3-0.4,0.5-0.7,0.7c0.1,0,0.2,0.1,0.3,0.1c0-0.3-0.1-0.7-0.1-1c0-0.2-0.2-0.3-0.3-0.1
			c-0.2,0.4-0.3,0.7-0.6,1c0.1,0,0.2,0.1,0.3,0.1c-0.1-0.6-0.1-1.1-0.1-1.7c0-0.2-0.3-0.3-0.3-0.1c-0.2,0.5-0.5,1-1,1.4
			c0.1,0,0.2,0,0.3,0c-0.3-0.6-0.1-1.3,0-1.9C40.3,62.9,40,62.8,39.9,63L39.9,63z"/>
	</g>
	<g>
		<path class="st8" d="M39.6,66.9c-0.1,0.4-0.1,0.9,0.3,1.2c0.4,0.3,0.8-0.3,0.9-0.6c-0.1,0-0.2-0.1-0.3-0.1c0,0.3,0,0.5,0.1,0.8
			c0,0.2,0.2,0.2,0.3,0.1c0.2-0.2,0.4-0.3,0.6-0.5c-0.1,0-0.2-0.1-0.3-0.1c0,0.2,0.1,0.4,0.1,0.5c0,0.2,0.2,0.2,0.3,0.1
			c0.2-0.2,0.5-0.4,0.6-0.7c-0.1,0-0.2-0.1-0.3-0.1c0,0.1-0.1,0.3-0.1,0.4c0,0.1,0.1,0.3,0.3,0.2c0.2-0.1,0.4-0.2,0.5-0.2
			c-0.1,0-0.2-0.1-0.3-0.1c0,0.2,0,0.5,0,0.7c0,0.2,0.2,0.2,0.3,0.1c0.2-0.1,0.4-0.2,0.5-0.4c0.2-0.1-0.1-0.4-0.2-0.2
			c-0.2,0.1-0.4,0.2-0.5,0.4c0.1,0,0.2,0.1,0.3,0.1c0-0.2,0-0.5,0-0.7c0-0.1-0.1-0.2-0.3-0.1c-0.2,0.1-0.4,0.1-0.5,0.2
			c0.1,0.1,0.2,0.1,0.3,0.2c0-0.2,0.1-0.3,0.1-0.5c0-0.2-0.2-0.2-0.3-0.1c-0.2,0.3-0.4,0.4-0.6,0.6c0.1,0,0.2,0.1,0.3,0.1
			c0-0.2-0.1-0.4-0.1-0.5c0-0.2-0.2-0.2-0.3-0.1c-0.2,0.2-0.4,0.3-0.6,0.5c0.1,0,0.2,0.1,0.3,0.1c0-0.2-0.1-0.5-0.1-0.7
			c0-0.2-0.2-0.3-0.3-0.1c0,0.1-0.4,0.8-0.5,0.3c-0.1-0.2,0-0.4,0-0.6C40,66.7,39.7,66.6,39.6,66.9L39.6,66.9z"/>
	</g>
	<g>
		<path class="st8" d="M50,79.8c0-0.4,0-0.8,0.1-1.2c0-0.2,0.4-1.4,0.8-0.8c0.3,0.6,0.1,1.5,0.1,2.1c0,0.2,0.3,0.2,0.3,0
			c0.1-0.7,0.3-1.3,0.7-1.9c-0.1,0-0.2,0-0.3,0c0.4,0.6,0.3,1.3,0.3,2c0,0.2,0.3,0.2,0.3,0c0.2-0.5,0.3-1.2,0.8-1.5
			c-0.1,0-0.2-0.1-0.3-0.1c0.1,0.7,0.1,1.4,0.1,2c0,0.2,0.3,0.3,0.3,0.1c0.2-0.5,0.4-1,0.9-1.3c-0.1,0-0.2-0.1-0.3-0.1
			c0.1,0.5,0.1,1.1,0.1,1.6c0,0.2,0.2,0.2,0.3,0.1c0.2-0.4,0.4-0.8,0.9-0.9c-0.1,0-0.1-0.1-0.2-0.1c0.1,0.5,0,1-0.2,1.5
			c0.1,0,0.2,0.1,0.3,0.1c0.2-0.6,0.5-1.2,1.1-1.5c-0.1,0-0.2-0.1-0.3-0.1c0.1,0.4,0,0.9,0,1.3c0,0.2,0.3,0.2,0.3,0
			c0-0.5,0.1-1,0-1.4c0-0.1-0.2-0.2-0.3-0.1c-0.6,0.4-1,1-1.2,1.7c-0.1,0.2,0.3,0.3,0.3,0.1c0.2-0.6,0.3-1.1,0.2-1.7
			c0-0.1-0.1-0.1-0.2-0.1c-0.6,0.1-0.9,0.6-1.1,1.1c0.1,0,0.2,0.1,0.3,0.1c0-0.6,0.1-1.2-0.1-1.7c0-0.1-0.2-0.2-0.3-0.1
			c-0.5,0.4-0.7,0.9-1,1.4c0.1,0,0.2,0.1,0.3,0.1c0-0.7,0.1-1.4-0.1-2.1c0-0.1-0.2-0.1-0.3-0.1c-0.5,0.4-0.7,1.1-0.9,1.7
			c0.1,0,0.2,0,0.3,0c0-0.7,0.1-1.5-0.3-2.2c-0.1-0.1-0.2-0.1-0.3,0c-0.4,0.6-0.6,1.3-0.7,2.1c0.1,0,0.2,0,0.3,0
			c0-0.6,0.3-2.3-0.5-2.6c-1.1-0.4-1.3,1.9-1.2,2.5C49.6,80.1,50,80.1,50,79.8L50,79.8z"/>
	</g>
	<g>
		<path class="st8" d="M50.5,74.8c0-0.6,0.1-1.3,0.3-1.9c0.2-0.3,0.6,0.8,0.6,0.9c0.1,0.3,0.1,0.6,0.2,0.9c0,0.2,0.3,0.2,0.3,0
			c0-0.3,0.1-0.7,0.3-1c0.3-0.3,0.5,0.7,0.5,0.8c0,0.2,0.4,0.1,0.3,0c0-0.4,0-0.7,0.2-1c0.3-0.7,0.6,0.1,0.7,0.5
			c0,0.2,0.4,0.2,0.3,0c0-0.4,0-0.7,0.3-1c-0.1,0-0.2,0-0.3,0c0.3,0.4,0.5,0.9,0.8,1.3c0.1,0.2,0.3,0.1,0.3-0.1c0-0.4,0-0.8,0.1-1.3
			c-0.1,0-0.2,0-0.3,0c0.3,0.4,0.4,0.8,0.4,1.3c0,0.2,0.3,0.1,0.3,0c0-0.2,0-0.4,0.1-0.6c-0.1,0-0.2,0-0.3,0
			c0.1,0.2,0.1,0.4,0.1,0.6c0,0.2,0.4,0.2,0.3,0c0-0.2-0.1-0.4-0.2-0.7c-0.1-0.1-0.3-0.2-0.3,0c-0.1,0.2-0.1,0.4-0.1,0.7
			c0.1,0,0.2,0,0.3,0c-0.1-0.5-0.2-0.9-0.5-1.4c-0.1-0.1-0.3-0.1-0.3,0c-0.1,0.4-0.1,0.9-0.1,1.4c0.1,0,0.2-0.1,0.3-0.1
			c-0.2-0.5-0.5-0.9-0.8-1.3c-0.1-0.1-0.2-0.1-0.3,0C54.1,73,54,73.4,54,73.9c0.1,0,0.2,0,0.3,0c-0.1-0.4-0.4-1.2-1-1
			c-0.6,0.2-0.7,1.1-0.6,1.6c0.1,0,0.2,0,0.3,0c-0.1-0.3-0.2-1.3-0.8-1.2c-0.5,0.1-0.7,0.9-0.7,1.3c0.1,0,0.2,0,0.3,0
			c-0.2-0.6-0.3-2.2-1.1-2.1c-0.7,0-0.7,1.8-0.7,2.3C50.2,75,50.5,75,50.5,74.8L50.5,74.8z"/>
	</g>
	<g>
		<path class="st8" d="M49.3,70.8c0-0.6-0.4-2.2,0.4-2.5c0.5-0.2,1,1.6,1.2,1.9c0.1,0.2,0.3,0.1,0.3-0.1c0-0.7-0.1-1.4,0.1-2
			c-0.1,0-0.2,0-0.3,0c0.3,0.4,0.5,0.8,0.8,1.2c0.1,0.1,0.3,0.1,0.3,0c0.1-0.4,0.1-0.9,0.2-1.3c-0.1,0-0.2,0-0.3,0
			c0.2,0.2,0.4,0.4,0.5,0.7c0.1,0.1,0.3,0.1,0.3-0.1c0-0.4,0.1-0.8,0.1-1.2c-0.1,0-0.2,0.1-0.3,0.1c0.3,0.4,0.5,0.7,0.7,1.1
			c0.1,0.2,0.3,0.1,0.3-0.1c0-0.3,0.1-0.5,0.1-0.8c-0.1,0-0.2,0.1-0.3,0.1c0.2,0.3,0.4,0.6,0.5,0.9c0.1,0.2,0.4,0,0.3-0.2
			c-0.2-0.3-0.4-0.6-0.5-0.9c-0.1-0.2-0.3-0.1-0.3,0.1c0,0.3-0.1,0.6-0.1,0.9c0.1,0,0.2-0.1,0.3-0.1c-0.2-0.4-0.5-0.8-0.8-1.2
			c-0.1-0.1-0.3,0-0.3,0.1c0,0.4-0.1,0.8-0.1,1.2c0.1,0,0.2-0.1,0.3-0.1c-0.2-0.3-0.4-0.5-0.5-0.7c-0.1-0.1-0.3-0.1-0.3,0
			c-0.1,0.4-0.1,0.9-0.2,1.3c0.1,0,0.2,0,0.3,0c-0.2-0.4-0.5-0.8-0.8-1.2c-0.1-0.1-0.3-0.1-0.3,0c-0.1,0.7-0.1,1.4-0.1,2.1
			c0.1,0,0.2-0.1,0.3-0.1c-0.3-0.6-0.6-2.2-1.6-2c-1,0.2-0.6,2.2-0.6,2.9C48.9,71,49.3,71,49.3,70.8L49.3,70.8z"/>
	</g>
	<g>
		<path class="st8" d="M47.9,66.7c-0.3-0.6-0.5-1.2-0.4-1.9c-0.1,0-0.2,0.1-0.3,0.1c0.5,0.4,0.8,0.9,1,1.4c0.1,0.2,0.3,0,0.3-0.1
			c-0.1-0.6-0.2-1.1-0.2-1.7c-0.1,0.1-0.1,0.1-0.2,0.2c0.6,0,0.9,0.4,1.3,0.8c0.1,0.1,0.4,0,0.3-0.2c-0.2-0.6-0.4-1.1-0.2-1.8
			c-0.1,0-0.1,0.1-0.2,0.1c0.3,0.1,0.5,0.2,0.7,0.5c0.1,0.2,0.4,0.1,0.3-0.1c-0.1-0.3-0.1-0.6-0.1-0.9c-0.1,0-0.2,0.1-0.3,0.1
			c0.1,0.2,0.2,0.3,0.3,0.5c0.1,0.1,0.3,0.1,0.3,0c0-0.1,0.1-0.3,0.1-0.4c-0.1,0-0.1,0.1-0.2,0.1c0.1,0,0.1,0,0.2,0.1
			c0.1,0.2,0.4,0,0.3-0.2c-0.1-0.2-0.2-0.3-0.5-0.2c-0.1,0-0.2,0-0.2,0.1c0,0.1-0.1,0.3-0.1,0.4c0.1,0,0.2,0,0.3,0
			c-0.1-0.2-0.2-0.3-0.3-0.5C50.2,62.9,50,63,50,63.1c0,0.3,0,0.6,0.1,1c0.1,0,0.2-0.1,0.3-0.1c-0.2-0.4-0.5-0.5-1-0.7
			c-0.1,0-0.2,0-0.2,0.1c-0.1,0.7,0,1.3,0.2,1.9c0.1-0.1,0.2-0.1,0.3-0.2c-0.4-0.5-0.8-0.9-1.5-0.9c-0.1,0-0.2,0.1-0.2,0.2
			c0,0.6,0.2,1.2,0.2,1.8c0.1,0,0.2-0.1,0.3-0.1c-0.3-0.6-0.6-1.1-1.1-1.5c-0.1-0.1-0.2,0-0.3,0.1c-0.1,0.8,0.1,1.5,0.4,2.1
			C47.7,67,48,66.9,47.9,66.7L47.9,66.7z"/>
	</g>
	<g>
		<g>
			<path class="st8" d="M33.7,26.3c-0.4,0.6-0.6,1.4-0.8,2.1c0,0.2,0.2,0.3,0.3,0.1c0.5-0.8,0.9-1.7,1.4-2.5c-0.1,0-0.2,0-0.3,0
				c0.1,0.7,0,1.5-0.1,2.2c0,0.2,0.2,0.2,0.3,0.1c0.3-0.5,0.6-1,1-1.5c-0.1,0-0.2-0.1-0.3-0.1c0,0.6-0.3,1.1-0.3,1.6
				c0,0.1,0.2,0.2,0.3,0.1c0.3-0.3,0.5-0.7,0.8-1.1c-0.1,0-0.2-0.1-0.3-0.1c0,0.2,0.1,0.5,0.2,0.7c0,0.2,0.2,0.2,0.3,0
				c0.1-0.2,0.3-0.3,0.5-0.5c-0.1,0-0.2,0-0.3,0c0,0.2,0.1,0.4,0.2,0.6c0,0.1,0.2,0.2,0.3,0.1c0.2-0.2,0.4-0.3,0.6-0.5
				c-0.1,0-0.2-0.1-0.3-0.1c0.1,0.7,0.6,0.8,1.1,0.3c-0.1,0-0.2-0.1-0.3-0.1c0,0.2,0,0.3,0.1,0.5c0.1,0.2,0.4,0.1,0.3-0.1
				c0-0.1-0.1-0.3-0.1-0.4c0-0.2-0.2-0.2-0.3-0.1c-0.2,0.2-0.4,0.2-0.5-0.2c0-0.1-0.2-0.2-0.3-0.1c-0.2,0.2-0.4,0.4-0.6,0.5
				c0.1,0,0.2,0.1,0.3,0.1c0-0.2-0.1-0.4-0.2-0.6c0-0.2-0.2-0.2-0.3,0c-0.1,0.2-0.3,0.3-0.5,0.5c0.1,0,0.2,0,0.3,0
				c0-0.2-0.1-0.5-0.2-0.7c0-0.1-0.2-0.2-0.3-0.1c-0.3,0.3-0.5,0.7-0.8,1.1c0.1,0,0.2,0.1,0.3,0.1c0-0.6,0.3-1.1,0.3-1.6
				c0-0.1-0.2-0.2-0.3-0.1c-0.4,0.5-0.7,1-1,1.6c0.1,0,0.2,0.1,0.3,0.1c0.1-0.8,0.2-1.5,0.1-2.3c0-0.2-0.2-0.2-0.3,0
				c-0.5,0.9-0.8,1.7-1.4,2.5c0.1,0,0.2,0.1,0.3,0.1c0.2-0.7,0.3-1.4,0.8-2C34.1,26.3,33.8,26.1,33.7,26.3L33.7,26.3z"/>
		</g>
		<g>
			<path class="st8" d="M33.5,29.1c-0.4,0.6-0.3,1.3-0.3,2c0,0.2,0.2,0.2,0.3,0.1c0.4-0.5,0.5-1.1,0.8-1.7c-0.1,0-0.2-0.1-0.3-0.1
				c0,0.3,0.1,0.6,0.1,0.9c0,0.1,0.2,0.2,0.3,0.1c0.1-0.1,0.2-0.3,0.3-0.4c-0.1,0-0.2,0-0.3,0c0.1,0.3,0.3,0.5,0.4,0.8
				c0,0.1,0.2,0.1,0.3,0c0.3-0.3,0.5-0.6,0.7-1c-0.1,0-0.2-0.1-0.3-0.1c0,0.2,0.1,0.4,0.1,0.6c0,0.1,0.2,0.2,0.3,0.1
				c0.3-0.3,0.5-0.5,0.7-0.8c-0.1,0-0.2-0.1-0.3-0.1c0,0.2,0.1,0.5,0.1,0.7c0,0.2,0.2,0.2,0.3,0.1c0.1-0.2,0.3-0.3,0.4-0.5
				c-0.1,0-0.2,0-0.3,0c0.1,0.1,0.2,0.2,0.2,0.4c0,0.1,0.2,0.2,0.3,0.1c0.1-0.1,0.3-0.2,0.4-0.2c-0.1-0.1-0.1-0.1-0.2-0.2
				c0,0,0,0,0,0c0,0.2,0.3,0.2,0.3,0c0,0,0,0,0,0c0-0.1-0.1-0.2-0.2-0.2c-0.3,0-0.5,0.2-0.7,0.3c0.1,0,0.2,0.1,0.3,0.1
				c0-0.2-0.1-0.4-0.3-0.5c-0.1-0.1-0.2-0.1-0.3,0c-0.1,0.2-0.3,0.4-0.4,0.5c0.1,0,0.2,0.1,0.3,0.1c0-0.2-0.1-0.5-0.1-0.7
				c0-0.2-0.2-0.2-0.3-0.1c-0.2,0.3-0.4,0.5-0.7,0.7c0.1,0,0.2,0.1,0.3,0.1c0-0.2-0.1-0.4-0.1-0.6c0-0.2-0.2-0.3-0.3-0.1
				c-0.2,0.4-0.4,0.7-0.7,1c0.1,0,0.2,0,0.3,0c-0.1-0.3-0.3-0.4-0.4-0.7c0-0.2-0.2-0.2-0.3,0c-0.1,0.1-0.2,0.2-0.3,0.3
				c0.1,0,0.2,0.1,0.3,0.1c0-0.3-0.1-0.6-0.1-0.9c0-0.2-0.2-0.2-0.3-0.1c-0.3,0.6-0.5,1.2-0.8,1.7c0.1,0,0.2,0.1,0.3,0.1
				c0-0.6-0.1-1.3,0.2-1.8C33.9,29.1,33.6,28.9,33.5,29.1L33.5,29.1z"/>
		</g>
		<g>
			<path class="st8" d="M57.2,39.7c-0.7,0.4-1.1,1.1-1.8,1.5c0.1,0,0.2,0.1,0.3,0.1c-0.1-0.8,0.6-1.6,0.7-2.4c0-0.2-0.2-0.3-0.3-0.2
				c-0.5,0.5-0.8,1-1.3,1.5c0.1,0,0.2,0.1,0.3,0.1c0-0.4,0.1-0.8,0.2-1.3c0-0.1-0.1-0.3-0.3-0.2c-0.4,0.2-0.7,0.5-1,0.8
				c0.1,0,0.2,0.1,0.3,0.1c0-0.5,0.1-0.9,0.3-1.3c0.1-0.2-0.1-0.3-0.3-0.2c-0.3,0.1-0.6,0.3-0.8,0.5c0.1,0.1,0.2,0.1,0.3,0.2
				c0.1-0.4,0-0.7,0.2-1.1c0-0.1,0-0.2-0.1-0.2c-0.2-0.1-0.2-0.1-0.3-0.1c0,0.1,0.1,0.1,0.1,0.2c0-0.2-0.1-0.4-0.1-0.5
				c0-0.1-0.1-0.2-0.2-0.2c-0.2,0.1-0.4,0.1-0.6,0.2c0.1,0,0.2,0.1,0.3,0.1c0-0.3-0.1-0.5-0.2-0.8c-0.1-0.2-0.4-0.1-0.3,0.1
				c0.1,0.3,0.2,0.5,0.1,0.7c0,0.1,0.2,0.2,0.3,0.1c0.2-0.1,0.3-0.1,0.5-0.2c-0.1-0.1-0.1-0.1-0.2-0.2c0,0.2,0.1,0.4,0.1,0.5
				c0,0.1,0,0.1,0.1,0.2c0.1,0,0.2,0,0.3,0.1c0-0.1-0.1-0.1-0.1-0.2c-0.1,0.4-0.1,0.7-0.2,1.1c0,0.2,0.2,0.3,0.3,0.2
				c0.2-0.2,0.5-0.3,0.7-0.4c-0.1-0.1-0.2-0.1-0.3-0.2c-0.2,0.5-0.4,0.9-0.3,1.4c0,0.1,0.2,0.3,0.3,0.1c0.3-0.3,0.5-0.6,0.9-0.7
				c-0.1-0.1-0.2-0.1-0.3-0.2c-0.1,0.4-0.3,0.9-0.2,1.4c0,0.2,0.2,0.2,0.3,0.1c0.5-0.4,0.9-1,1.3-1.5C56.2,39,56.1,39,56,38.9
				c-0.1,0.9-0.8,1.7-0.7,2.6c0,0.1,0.2,0.2,0.3,0.1c0.7-0.4,1.1-1.2,1.8-1.5C57.6,39.9,57.4,39.6,57.2,39.7L57.2,39.7z"/>
		</g>
		<g>
			<path class="st8" d="M58.2,36.3c0.1,0.7,0,1.4-0.5,2c0.1,0,0.2,0.1,0.3,0.1c-0.1-0.8,0-1.5-0.2-2.3c0-0.2-0.2-0.2-0.3,0
				c-0.4,0.6-0.5,1.3-0.8,2c0.1,0,0.2,0,0.3,0c-0.3-0.7-0.1-1.5-0.1-2.2c0-0.2-0.3-0.2-0.3,0c-0.2,0.5-0.3,0.9-0.6,1.3
				c0.1,0,0.2,0.1,0.3,0.1c0-0.5,0-1-0.1-1.5c0-0.1-0.2-0.2-0.3-0.1c-0.2,0.3-0.5,0.4-0.7,0.7c0.1,0.1,0.2,0.1,0.3,0.2
				c0.1-0.4,0-0.7-0.1-1c0-0.2-0.2-0.2-0.3-0.1c-0.2,0.2-0.4,0.3-0.5,0.5c0.1,0,0.2,0.1,0.3,0.1c0-0.1,0-0.3-0.1-0.4
				c0-0.1-0.2-0.2-0.3-0.1c-0.1,0.1-0.2,0.1-0.2,0.2c0.1,0,0.2,0.1,0.3,0.1c-0.1-0.2-0.2-0.4-0.2-0.7c0-0.2-0.4-0.1-0.3,0.1
				c0,0.3,0.1,0.5,0.2,0.7c0,0.1,0.2,0.2,0.3,0.1c0.1-0.1,0.2-0.1,0.2-0.2c-0.1,0-0.2-0.1-0.3-0.1c0,0.1,0.1,0.2,0.1,0.3
				c0,0.1,0.2,0.2,0.3,0.1c0.2-0.2,0.4-0.3,0.5-0.5c-0.1,0-0.2-0.1-0.3-0.1c0,0.3,0.1,0.6,0.1,1c0,0.1,0.2,0.3,0.3,0.2
				c0.2-0.3,0.5-0.4,0.7-0.7c-0.1,0-0.2-0.1-0.3-0.1c0.1,0.5,0.1,0.9,0.1,1.4c0,0.2,0.2,0.2,0.3,0.1c0.3-0.4,0.5-0.9,0.6-1.4
				c-0.1,0-0.2,0-0.3,0c0,0.8-0.2,1.7,0.2,2.4c0.1,0.1,0.2,0.1,0.3,0c0.3-0.7,0.5-1.4,0.8-2c-0.1,0-0.2,0-0.3,0
				c0.1,0.8,0,1.5,0.2,2.3c0,0.1,0.2,0.2,0.3,0.1c0.5-0.6,0.7-1.4,0.6-2.2C58.5,36.1,58.1,36.1,58.2,36.3L58.2,36.3z"/>
		</g>
	</g>
</g>
<g>
	<path class="st10" d="M56.9,41c-0.1,0-0.1,0-0.1-0.1c-0.1-0.1,0-0.2,0-0.2c1.3-0.9,1.4-3.1,1.4-4.7c0-0.5,0-0.9,0.1-1.2
		c0.2-1.7,0.5-7.3,0-7.7c-0.4-0.4-1.5-0.4-1.9-0.4c-0.1,0-0.1,0-0.1-0.1c-4.3-5.8-12.3-7-12.3-7c-0.1,0-0.1-0.1-0.1-0.1
		c0,0-0.3-0.9-0.8-0.8c-0.6,0.1-1.8,0.9-2.1,1.3c-0.3,0.5-2.8,2.5-3.8,3.1c-1.6,0.9-3.5,2.2-3.5,3.2c0,0.1-0.1,0.2-0.2,0.2
		c-0.1,0-0.2-0.1-0.2-0.2c0.1-1.4,3.1-3.1,3.7-3.5c1-0.5,3.4-2.5,3.7-2.9c0.3-0.5,1.6-1.3,2.3-1.5c0.6-0.2,1,0.6,1.1,0.9
		c1,0.2,8.3,1.6,12.4,7c0.4,0,1.6,0,2.1,0.5c0.7,0.7,0.1,7.4,0,8c0,0.3-0.1,0.7-0.1,1.2C58.5,37.7,58.5,40,56.9,41
		C57,41,57,41,56.9,41z"/>
</g>
<g>
	<path class="st10" d="M32.7,29.1c-0.1,0-0.2-0.1-0.2-0.1c-0.3-1.7,1.7-3.5,1.7-3.6c0.1-0.1,0.2-0.1,0.2,0c0.1,0.1,0.1,0.2,0,0.2
		c0,0-1.9,1.7-1.6,3.2C32.9,29,32.8,29.1,32.7,29.1C32.7,29.1,32.7,29.1,32.7,29.1z"/>
</g>
<g>
	<path class="st10" d="M22,62.7C22,62.7,22,62.7,22,62.7c-0.2,0-0.3-0.1-0.4-0.2c0,0,0,0,0,0c0,0,0,0,0,0c-0.1,0-0.2,0.1-0.4,0
		c-0.2-0.1-0.3-0.2-0.3-0.4c-0.2,0-0.3,0-0.5-0.1c-0.3-0.2-0.2-1.2,0.3-3.9c0.3-1.4,0.6-3,0.7-4.4c0.3-2.9,1.9-10.4,5.1-14.6
		c1.7-2.3,5.4-6.2,5.8-6.6l0.2-1c-0.6-2.5,0.8-3.5,0.9-3.5c0.1-0.1,0.2,0,0.2,0c0.1,0.1,0,0.2,0,0.2c-0.1,0-1.3,1-0.7,3.2
		c0,0,0,0,0,0.1l-0.2,1.1c0,0,0,0.1,0,0.1c0,0-4,4.2-5.8,6.6c-3.2,4.1-4.8,11.5-5,14.4c-0.1,1.4-0.4,3-0.7,4.4
		c-0.3,1.5-0.6,3.3-0.4,3.5c0.1,0.1,0.1,0.1,0.2,0.1c0,0,0.1-0.1,0.1-0.1c0,0,0-0.1,0-0.1c0-0.1,0.1-0.1,0.2-0.1
		c0.1,0,0.1,0.1,0.1,0.2c0,0,0,0,0,0.1c0,0.1-0.1,0.3,0.1,0.4c0.1,0,0.1,0,0.1,0c0.1,0,0.1-0.1,0.1-0.2c0,0,0,0,0-0.1
		c0-0.1,0.1-0.1,0.2-0.1c0.1,0,0.1,0.1,0.1,0.2c0,0,0,0,0,0.1c0,0.1,0,0.2,0,0.2c0,0,0,0,0.1,0c0.4-0.1,3-2.6,5.3-4.9
		c0.1-0.1,0.2-0.1,0.2,0c0.1,0.1,0.1,0.2,0,0.2c0,0-1.2,1.3-2.5,2.5C22.5,62.7,22.2,62.7,22,62.7z"/>
</g>
<g>
	<path class="st10" d="M27.8,57.2C27.8,57.2,27.8,57.2,27.8,57.2c-1-0.2-1.7-0.9-1.7-0.9c-0.1-0.1-0.1-0.2,0-0.2
		c0.1-0.1,0.2-0.1,0.2,0c0,0,0.6,0.7,1.5,0.8c0.1,0,0.2,0.1,0.1,0.2C28,57.1,27.9,57.2,27.8,57.2z"/>
</g>
<g>
	<path class="st10" d="M40.2,61.9C40.2,61.9,40.2,61.9,40.2,61.9c-7.7-0.9-13.2-4.6-13.3-4.6c-0.1-0.1-0.1-0.2,0-0.2
		c0.1-0.1,0.2-0.1,0.2,0c0.1,0,5.6,3.7,13.1,4.5c0.1,0,0.2,0.1,0.2,0.2C40.3,61.8,40.3,61.9,40.2,61.9z"/>
</g>
<g>
	<path class="st10" d="M41.4,70.5c-0.2,0-0.3-0.1-0.4-0.2c0,0,0,0,0-0.1c-0.2,0.1-0.4,0.3-0.6,0.2c-0.2-0.1-0.3-0.2-0.3-0.4
		c-0.2,0.1-0.4,0.2-0.7,0c-0.1-0.1-0.3-0.2-0.2-4.4c0-2,0.1-4,0.1-4c0-0.1,0.1-0.2,0.2-0.2c0.1,0,0.2,0.1,0.2,0.2
		c-0.1,2.9-0.2,7.7,0,8.1c0.2,0.1,0.4-0.1,0.4-0.1c0,0,0.1-0.1,0.2,0c0.1,0,0.1,0.1,0.1,0.1c0,0.1,0.1,0.3,0.2,0.4
		c0.1,0,0.2-0.1,0.4-0.3c0-0.1,0.1-0.1,0.2-0.1c0.1,0,0.1,0.1,0.1,0.2c0,0,0,0.1,0,0.2c0,0,0,0,0.1,0c0.5-0.2,3.9-4.3,5.2-7.7
		c0.5-1.3,1.2-3,2-4.8c1.1-2.7,2.3-5.5,2.9-7.4c0-0.1,0.1-0.1,0.2-0.1c0.1,0,0.1,0.1,0.1,0.2c-0.6,1.9-1.8,4.7-2.9,7.4
		c-0.8,1.8-1.5,3.6-2,4.8C45.7,65.8,42,70.5,41.4,70.5z"/>
</g>
<g>
	<path class="st10" d="M52.5,50.5c-0.7,0-1.4-0.1-2.1-0.2c-0.1,0-0.2-0.1-0.1-0.2c0-0.1,0.1-0.2,0.2-0.1c0.6,0.1,1.3,0.2,2,0.2
		c4.1,0,8.1-1.8,8.5-2c0,0,0,0,0-0.1c0-0.1-0.2-0.2-0.3-0.3c-0.1,0-0.1-0.1-0.1-0.2c0-0.1,0.1-0.1,0.1-0.1c0.1,0,0.4-0.1,0.4-0.3
		c0-0.1-0.2-0.3-0.4-0.4c-0.1,0-0.1-0.1-0.1-0.2c0-0.1,0.1-0.1,0.2-0.1c0.1,0,0.3-0.2,0.3-0.3c0-0.1,0-0.1,0-0.1
		c-0.1,0-0.5-0.1-0.9-0.1c-0.8-0.1-2-0.1-3.2-0.5c-1.9-0.5-3.3-2.2-3.3-2.3c-0.1-0.1,0-0.2,0-0.2c0.1-0.1,0.2,0,0.2,0
		c0,0,1.3,1.6,3.1,2.1c1.1,0.3,2.3,0.4,3.1,0.5c0.7,0,1,0.1,1.1,0.2c0.2,0.1,0.2,0.3,0.2,0.5c0,0.1-0.1,0.3-0.3,0.4
		c0.2,0.1,0.3,0.3,0.3,0.6c0,0.2-0.2,0.4-0.4,0.5c0.1,0.1,0.2,0.2,0.2,0.3c0,0.1,0,0.2-0.2,0.4C61.1,48.5,56.9,50.5,52.5,50.5z"/>
</g>
<g>
	<path class="st10" d="M26.6,39.7c0,0-0.1,0-0.1-0.1c0,0-0.3-0.3-0.6-0.6c-3.4-3.2-4-3.9-3.9-4.2c0-0.1,0.1-0.3,0.2-0.3
		c-0.1-0.2-0.2-0.4-0.2-0.7c0.1-0.3,0.3-0.4,0.5-0.4c-0.1-0.1-0.1-0.2-0.1-0.3c0-0.2,0-0.3,0.2-0.4c0.3-0.3,1-0.1,2.7,0.5
		c0.7,0.2,1.3,0.4,1.8,0.5c1.4,0.3,4.4,0,4.4,0c0.1,0,0.2,0.1,0.2,0.2c0,0.1-0.1,0.2-0.2,0.2c-0.1,0-3.1,0.3-4.5,0
		c-0.5-0.1-1.2-0.3-1.9-0.6c-0.9-0.3-2.1-0.7-2.3-0.6c-0.1,0.1-0.1,0.1-0.1,0.1c0,0.1,0.2,0.3,0.2,0.4c0.1,0,0.1,0.1,0.1,0.2
		c0,0.1-0.1,0.1-0.2,0.1c0,0-0.4-0.1-0.5,0.2c-0.1,0.3,0.3,0.5,0.3,0.5c0.1,0,0.1,0.1,0.1,0.2c0,0.1-0.1,0.1-0.2,0.1
		c-0.1,0-0.1,0-0.1,0.2c0.2,0.4,2.9,3,3.8,3.9c0.4,0.4,0.6,0.5,0.6,0.6c0.1,0.1,0.1,0.2,0,0.2C26.6,39.7,26.6,39.7,26.6,39.7z"/>
</g>
<g>
	<path class="st10" d="M50.1,83C50.1,83,50,82.9,50.1,83c-1.3-0.9-1.1-2.6-0.8-4.7c0.2-1.3,0.4-2.7,0.2-4.1
		c-0.4-3.5-3.6-9.7-3.6-9.8c0-0.1,0-0.2,0.1-0.2c0.1,0,0.2,0,0.2,0.1c0.1,0.3,3.3,6.4,3.7,9.9c0.1,1.4,0,2.9-0.2,4.2
		c-0.3,1.9-0.5,3.6,0.6,4.3c0.1,0.1,0.1,0.2,0,0.2C50.2,82.9,50.2,83,50.1,83z"/>
</g>
<g>
	<path class="st11" d="M51.6,84.1C51.6,84.1,51.6,84.1,51.6,84.1c-1.9-0.7-1.7-2.8-1.7-2.9c0-0.1,0.1-0.2,0.2-0.2
		c0.1,0,0.2,0.1,0.2,0.2c0,0.1-0.2,1.8,1.4,2.5c0.1,0,0.1,0.1,0.1,0.2C51.7,84.1,51.7,84.1,51.6,84.1z"/>
</g>
<g>
	<path class="st10" d="M53.1,84.2c-1.6,0-2.1-1.6-2.1-1.6c0-0.1,0-0.2,0.1-0.2c0.1,0,0.2,0,0.2,0.1c0,0.1,0.4,1.3,1.8,1.3
		c0.8,0,2.1-1.5,2.3-2c0.8-1.9,1.7-4.1,1.1-7.2c-1.1-5.5-4.3-10.1-6.6-13.2c-0.9-1.2-1.4-3-1.5-3.1c0-0.1,0-0.2,0.1-0.2
		c0.1,0,0.2,0,0.2,0.1c0,0,0.6,1.9,1.4,3c2.3,3.1,5.5,7.8,6.6,13.3c0.7,3.3-0.3,5.5-1.1,7.4C55.5,82.5,54.1,84.2,53.1,84.2z"/>
</g>
<g>
	<g>
		<g>
			<path class="st1" d="M44.6,27.2c0.6-0.6,0.7-1.8-1.4-3.1c-1.8-1.2-3.2-0.6-3.7,0c-0.6,0.7,0,2.2,1.7,3.1
				C43,28.1,44,27.8,44.6,27.2z"/>
			<path class="st10" d="M43.2,28C43.2,28,43.2,28,43.2,28c-0.6,0-1.3-0.2-2-0.6c-1-0.5-1.8-1.4-2-2.2c-0.1-0.4,0-0.8,0.2-1.1
				c0.4-0.5,1-0.7,1.7-0.7c0.7,0,1.4,0.2,2.2,0.7c1.1,0.7,1.7,1.4,1.8,2.1c0.1,0.4-0.1,0.9-0.4,1.2C44.3,27.8,43.8,28,43.2,28z
				 M41.1,23.7c-0.9,0-1.3,0.5-1.5,0.6c-0.2,0.2-0.2,0.5-0.1,0.8c0.1,0.6,0.7,1.4,1.8,2c1.4,0.7,2.5,0.7,3.1,0
				c0.2-0.2,0.4-0.5,0.3-0.9c-0.1-0.6-0.7-1.3-1.7-1.9C42.4,23.9,41.7,23.7,41.1,23.7z"/>
		</g>
		<g>
			<path class="st1" d="M54.4,32.2c0.4-0.8,0.5-1.6-1.6-3.1c-1.8-1.3-3.3-0.6-3.8,0c-0.6,0.7,0.1,2.2,1.9,3.1
				C52.6,33.1,54.2,32.8,54.4,32.2z"/>
			<path class="st10" d="M53,32.9C53,32.9,53,32.9,53,32.9c-0.5,0-1.3-0.1-2.2-0.5c-1.3-0.6-2-1.6-2.1-2.3c-0.1-0.4,0-0.8,0.2-1.1
				c0.3-0.4,1-0.8,1.9-0.8c0.7,0,1.4,0.3,2.1,0.7c2,1.4,2.1,2.3,1.7,3.3C54.4,32.7,53.8,32.9,53,32.9z M50.8,28.6
				c-0.8,0-1.3,0.4-1.6,0.7C49,29.4,49,29.7,49,30c0.1,0.6,0.7,1.5,1.9,2.1c0.9,0.4,1.6,0.5,2,0.5c0.7,0,1.2-0.2,1.3-0.4
				c0.3-0.7,0.5-1.4-1.6-2.9C52,28.8,51.4,28.6,50.8,28.6z"/>
		</g>
		<g>
			<path class="st11" d="M43.3,25.8c0.5,0,0.5-0.8,0-0.8C42.8,25,42.8,25.8,43.3,25.8L43.3,25.8z"/>
		</g>
		<g>
			<path class="st11" d="M51.4,30c0.5,0,0.5-0.8,0-0.8C50.9,29.2,50.9,30,51.4,30L51.4,30z"/>
		</g>
	</g>
	<g>
		<path class="st8" d="M45.5,31.5l0-1.7L44.4,31c0,0,0.3,0,0.6,0.1C45.3,31.2,45.5,31.5,45.5,31.5z"/>
		<g>
			<path class="st12" d="M45.5,29.8c0,0-0.5-0.7-0.2-1c0.3-0.3,1.4,0.4,1.2,0.7C46.3,29.8,45.5,29.8,45.5,29.8z"/>
			<path class="st11" d="M45.5,30c-0.1,0-0.1,0-0.1-0.1c-0.1-0.1-0.6-0.9-0.2-1.3c0.1-0.1,0.2-0.1,0.3-0.1c0.4,0,1,0.3,1.1,0.7
				c0.1,0.2,0,0.3,0,0.4C46.4,30,45.6,30,45.5,30C45.5,30,45.5,30,45.5,30z M45.6,28.9C45.5,28.9,45.5,28.9,45.6,28.9
				c-0.2,0.1-0.1,0.5,0.1,0.8c0.3,0,0.7-0.1,0.8-0.2c0,0,0-0.1-0.1-0.1C46.1,29,45.8,28.9,45.6,28.9z"/>
		</g>
		<g>
			<path class="st11" d="M45.5,31.7C45.5,31.7,45.5,31.7,45.5,31.7c-0.1,0-0.2-0.1-0.2-0.2l0-1.3l-0.8,0.8c-0.1,0.1-0.2,0.1-0.2,0
				c-0.1-0.1-0.1-0.2,0-0.2l1.1-1.2c0-0.1,0.1-0.1,0.2,0c0.1,0,0.1,0.1,0.1,0.2l0,1.7C45.7,31.6,45.6,31.7,45.5,31.7z"/>
		</g>
	</g>
</g>
<g>
	<path class="st10" d="M43,19.9c-0.1,0-0.2,0-0.3-0.1c-0.2-0.2-0.3-0.4-0.3-0.5c0-0.1,0.1-0.2,0.2-0.2c0.1,0,0.2,0.1,0.2,0.2
		c0,0,0,0.1,0.1,0.2c0.1,0.1,0.3,0,0.4,0c0.1,0,0.2,0,0.2,0.1c0,0.1,0,0.2-0.1,0.2C43.2,19.9,43.1,19.9,43,19.9z"/>
</g>
<g>
	<path class="st10" d="M57.8,28c-0.2,0-0.4-0.1-0.5-0.2C57,27.6,57,27.3,57,27.2c0-0.1,0.1-0.2,0.2-0.2c0.1,0,0.2,0.1,0.2,0.2
		c0,0,0,0.2,0.2,0.4c0.2,0.1,0.4,0.1,0.6,0c0.1,0,0.2,0,0.2,0.1c0,0.1,0,0.2-0.1,0.2C58,28,57.9,28,57.8,28z"/>
</g>
<g>
	<g>
		<path class="st10" d="M42.9,35.3C42.9,35.3,42.9,35.3,42.9,35.3c-1.6-0.2-2.2-1.2-2.2-1.2c-0.1-0.1,0-0.2,0.1-0.2
			c0.1-0.1,0.2,0,0.2,0.1l0,0c0,0,0.6,0.8,1.9,1c0.1,0,0.2,0.1,0.1,0.2C43,35.2,43,35.3,42.9,35.3z"/>
	</g>
	<g>
		<path class="st10" d="M43.7,35.9c-0.8,0-1.9-0.3-1.9-0.3c-0.1,0-0.1-0.1-0.1-0.2c0-0.1,0.1-0.1,0.2-0.1c0,0,1.3,0.4,2,0.3
			c0.1,0,0.2,0.1,0.2,0.2c0,0.1-0.1,0.2-0.2,0.2C43.9,35.8,43.8,35.9,43.7,35.9z"/>
	</g>
	<g>
		<path class="st10" d="M44.2,36.4c-0.5,0-0.6,0-0.6-0.1c-0.1,0-0.1-0.1-0.1-0.2c0-0.1,0.1-0.1,0.2-0.1c0,0,0.3,0.1,1.3,0
			c0.1,0,0.2,0.1,0.2,0.2c0,0.1-0.1,0.2-0.2,0.2C44.7,36.4,44.4,36.4,44.2,36.4z"/>
	</g>
</g>
<g>
	<path class="st10" d="M55.1,42.3c-0.1,0-0.2-0.1-0.2-0.1c0-0.1,0.1-0.2,0.1-0.2c1.9-0.3,1.8-2.3,1.8-2.4c0-0.1,0.1-0.2,0.2-0.2
		c0.1,0,0.2,0.1,0.2,0.2C57.2,39.5,57.3,41.9,55.1,42.3C55.1,42.3,55.1,42.3,55.1,42.3z"/>
</g>
<g>
	<path class="st10" d="M54.5,43.4c-6,0-11.9-2.9-15.8-5.2c-4.2-2.6-7.1-5.2-7.1-5.2c0,0,0-0.1-0.1-0.1c-0.1-0.3,0-0.6,0.1-0.8
		c0.1-0.1,0.3-0.2,0.5-0.2c0.2,0,0.4,0.1,0.4,0.1c0,0,0,0,0.1,0c0,0,2.8,2.9,9.2,6.5c4.5,2.5,8.1,3.7,11.2,3.7c0.4,0,0.8,0,1.1,0
		c0.2,0,0.4,0,0.5,0c0.3,0,0.5,0,0.7,0.2c0.2,0.3,0.2,0.5,0.1,0.7c-0.2,0.4-0.9,0.4-1,0.4L54.5,43.4z M31.9,32.7
		c0.4,0.3,3.1,2.8,7,5.2c3.9,2.4,9.7,5.2,15.6,5.2l0.1,0c0.2,0,0.6-0.1,0.7-0.3c0-0.1,0-0.2-0.1-0.3c-0.1-0.1-0.2-0.1-0.4-0.1
		c-0.1,0-0.3,0-0.5,0c-0.3,0-0.7,0-1.1,0c-3.2,0-6.9-1.2-11.4-3.7c-6.1-3.4-9-6.2-9.3-6.5c-0.1,0-0.2,0-0.3,0c-0.1,0-0.2,0-0.2,0.1
		C31.9,32.3,31.9,32.5,31.9,32.7z"/>
</g>
<g>
	<path class="st10" d="M55.5,42.9c-0.1,0-0.1,0-0.2-0.1c0-0.1,0-0.2,0.1-0.2c5.7-2.8,8.1-7.1,8.1-14.7c0-4.4-3.1-9.4-7.9-12.3
		c-4.9-3-10.5-3.3-15.4-0.8c-6,3-7.8,7.5-8.3,10.8c-0.5,3.5,0.4,6.4,0.4,6.4c0,0.1,0,0.2-0.1,0.2c-0.1,0-0.2,0-0.2-0.1
		c0,0-0.9-2.9-0.4-6.5c0.5-3.3,2.4-7.9,8.5-11c2.7-1.4,5.5-1.9,8.4-1.7c2.5,0.2,5.1,1.1,7.4,2.5c4.8,3,8.1,8.1,8,12.6
		C63.9,35.6,61.4,40,55.5,42.9C55.6,42.9,55.5,42.9,55.5,42.9z"/>
</g>
<g>
	<g>
		<g>
			<path class="st10" d="M60,36.4c0,0-0.1,0-0.1,0c-2-2-7.9-2.6-8-2.6c-0.1,0-0.2-0.1-0.2-0.2c0-0.1,0.1-0.2,0.2-0.2
				c0.2,0,6,0.7,8.2,2.7c0.1,0.1,0.1,0.2,0,0.2C60.1,36.4,60.1,36.4,60,36.4z"/>
		</g>
		<g>
			<path class="st10" d="M59.6,38.3c0,0-0.1,0-0.1-0.1c-2-2-7-3.3-7-3.3c-0.1,0-0.1-0.1-0.1-0.2c0-0.1,0.1-0.1,0.2-0.1
				c0.2,0.1,5.2,1.3,7.2,3.4c0.1,0.1,0.1,0.2,0,0.2C59.6,38.3,59.6,38.3,59.6,38.3z"/>
		</g>
		<g>
			<path class="st10" d="M56.8,38.9c-0.1,0-0.1,0-0.1-0.1c-0.8-1.1-4.9-3.1-4.9-3.1c-0.1,0-0.1-0.1-0.1-0.2c0-0.1,0.1-0.1,0.2-0.1
				c0.2,0.1,4.2,2.1,5,3.3C56.9,38.7,56.9,38.8,56.8,38.9C56.8,38.9,56.8,38.9,56.8,38.9z"/>
		</g>
	</g>
	<g>
		<g>
			<path class="st10" d="M40,27.8c0,0-0.1,0-0.1-0.1c0,0-3.5-4.1-6.3-4.2c-0.1,0-0.2-0.1-0.2-0.2c0-0.1,0.1-0.2,0.2-0.2
				c2.9,0.1,6.4,4.2,6.6,4.3c0.1,0.1,0.1,0.2,0,0.2C40,27.8,40,27.8,40,27.8z"/>
		</g>
		<g>
			<path class="st10" d="M38.8,28c0,0-0.1,0-0.1,0c0,0-3.4-2.5-6.1-2.5c0,0,0,0,0,0c-0.1,0-0.2-0.1-0.2-0.2c0-0.1,0.1-0.2,0.2-0.2
				c0,0,0,0,0,0c2.8,0,6.2,2.5,6.3,2.6c0.1,0.1,0.1,0.2,0,0.2C38.9,28,38.8,28,38.8,28z"/>
		</g>
		<g>
			<path class="st10" d="M38.7,28.9C38.6,28.9,38.6,28.9,38.7,28.9c-0.1,0-5.3-2.1-6.6-1.9c-0.1,0-0.2,0-0.2-0.1
				c0-0.1,0-0.2,0.1-0.2c1.4-0.2,6.5,1.8,6.7,1.9c0.1,0,0.1,0.1,0.1,0.2C38.8,28.9,38.7,28.9,38.7,28.9z"/>
		</g>
	</g>
</g>
<g>
	<g>
		<path class="st7" d="M45.8,46.3c0,0.2-0.2,0.3-0.4,0.3c-0.2,0-0.4-0.1-0.4-0.3c0-0.2,0.2-0.3,0.4-0.3C45.6,46,45.8,46.1,45.8,46.3
			z"/>
	</g>
	<g>
		<path class="st7" d="M46.4,50.1c-0.1,0.1-0.3,0.1-0.3-0.1c-0.1-0.1-0.1-0.3,0-0.3c0.1-0.1,0.3-0.1,0.3,0.1
			C46.5,49.9,46.5,50,46.4,50.1z"/>
	</g>
	<g>
		<path class="st7" d="M43.6,49.3c-0.1,0-0.2-0.1-0.2-0.3c0-0.1,0.1-0.2,0.3-0.2c0.1,0,0.2,0.1,0.2,0.3
			C43.8,49.2,43.7,49.3,43.6,49.3z"/>
	</g>
	<g>
		<path class="st7" d="M25.5,53.1c-0.1-0.1-0.2-0.2-0.1-0.3c0.1-0.1,0.2-0.2,0.3-0.1c0.1,0.1,0.2,0.2,0.1,0.3
			C25.8,53.1,25.6,53.1,25.5,53.1z"/>
	</g>
	<g>
		<path class="st7" d="M25,49.7c-0.1-0.1-0.1-0.2,0-0.3c0.1-0.1,0.2-0.1,0.3,0s0.1,0.2,0,0.3C25.2,49.8,25.1,49.8,25,49.7z"/>
	</g>
	<g>
		<g>
			<path class="st1" d="M49.4,38c0,0.1-0.2,0.1-0.3,0.1C49,38.1,49,38,49,37.9c0-0.1,0.2-0.1,0.3-0.1C49.4,37.8,49.4,37.9,49.4,38z"
				/>
		</g>
		<g>
			<path class="st1" d="M51.7,38c0.1,0,0.3,0,0.3,0.2c0.1,0.1,0,0.3-0.1,0.3c-0.1,0-0.3,0-0.3-0.2C51.5,38.2,51.6,38.1,51.7,38z"/>
		</g>
		<g>
			<path class="st1" d="M55.4,28.1c0.1,0,0.2,0.1,0.2,0.2c0,0.1-0.1,0.2-0.2,0.2c-0.1,0-0.2-0.1-0.2-0.2
				C55.2,28.2,55.3,28.1,55.4,28.1z"/>
		</g>
		<g>
			<path class="st1" d="M48.7,45.1c0.2-0.1,0.4,0.1,0.4,0.2c0.1,0.2,0,0.4-0.2,0.4c-0.2,0.1-0.4-0.1-0.4-0.3
				C48.5,45.4,48.6,45.2,48.7,45.1z"/>
		</g>
		<g>
			<path class="st1" d="M43.5,62.8c-0.1,0.1-0.2,0.1-0.3,0.1c-0.1-0.1-0.1-0.2-0.1-0.3c0.1-0.1,0.2-0.1,0.3-0.1
				C43.5,62.6,43.6,62.7,43.5,62.8z"/>
		</g>
		<g>
			<path class="st1" d="M36.5,32.1c0.1,0,0.2,0.2,0.2,0.3c0,0.1-0.2,0.2-0.3,0.2s-0.2-0.2-0.2-0.3C36.2,32.2,36.3,32.1,36.5,32.1z"
				/>
		</g>
		<g>
			<path class="st1" d="M43.6,22c-0.2-0.1-0.2-0.3-0.1-0.5c0.1-0.2,0.3-0.2,0.5-0.1c0.2,0.1,0.2,0.3,0.1,0.5C44,22,43.8,22,43.6,22z
				"/>
		</g>
	</g>
</g>
<g>
	<g>
		<path class="st13" d="M17.5,41.1c0,0,0.6-0.6,0.4-0.8c-0.2-0.2-1,0.1-1,0.1c0-0.1-0.5-0.8-0.7-0.7c-0.2,0.2-0.1,0.8-0.1,0.8
			c-0.7,0.2-0.8,0.3-0.7,0.5c0,0,0.2,0.3,0.7,0.4c0,0-0.3,0.9,0.1,0.9c0.4,0,0.6-0.5,0.6-0.5s0.8,0.5,1,0.2
			C18,41.7,17.5,41.1,17.5,41.1z"/>
	</g>
	<g>
		<path class="st14" d="M29,78.4c0,0,1.1-0.1,1.1,0.3c0,0.4-0.6,0.9-0.6,0.9c0.1,0.2,0.2,1.2-0.2,1.2c-0.3,0-0.9-0.5-0.9-0.5
			c-0.8,0.5-1,0.5-1.1,0.3c0,0-0.1-0.5,0.1-1c0,0-0.9-0.6-0.6-0.9c0.3-0.3,0.9,0,0.9,0s0.1-1.2,0.6-1.1C28.8,77.5,29,78.4,29,78.4z"
			/>
	</g>
	<g>
		<path class="st13" d="M67.3,16.3c0,0-0.9-0.3-1,0c-0.1,0.3,0.3,0.8,0.3,0.8c-0.1,0.1-0.4,0.9-0.1,1c0.3,0.1,0.9-0.2,0.9-0.2
			c0.5,0.6,0.9,0.7,1,0.5c0.1-0.2,0-0.4,0-0.9c0,0,0.9-0.3,0.7-0.6c-0.2-0.3-0.8-0.2-0.8-0.2s0.1-1-0.3-1
			C67.7,15.6,67.3,16.3,67.3,16.3z"/>
	</g>
	<g>
		<path class="st14" d="M13.2,18.9c0,0,0.5,1.1,0.9,1c0.4-0.1,0.4-1.1,0.4-1.1c0.2,0,0.8,0.1,0.8-0.2c0-0.5-0.7-0.8-0.7-0.8
			c0.2-0.4,0.2-0.9,0.1-1c-0.1,0-0.5,0-1,0.4c0,0-0.6-0.6-1-0.4c-0.2,0.1,0.1,0.9,0.1,0.9S12,18.3,12,18.6
			C12.1,19,13.2,18.9,13.2,18.9z"/>
	</g>
	<g>
		<path class="st14" d="M68.7,43.8c0,0-1.2,0.3-1.3,0c-0.2-0.3,0.5-1,0.5-1c-0.1-0.1-0.6-0.6-0.4-0.7c0.4-0.4,1.1,0,1.1,0
			c0.2-0.4,0.5-0.8,0.7-0.7c0.1,0,0.4,0.4,0.4,1c0,0,0.9,0,0.9,0.5c0,0.2-0.7,0.5-0.7,0.5s0.1,1-0.1,1.2
			C69.4,44.8,68.7,43.8,68.7,43.8z"/>
	</g>
	<g>
		<path class="st13" d="M26.8,4.7c0,0,1.1,0.3,1.2-0.1c0.1-0.4-0.6-1.1-0.6-1.1c0.1-0.1,0.5-0.9,0.2-1c-0.3-0.1-1,0.3-1,0.3
			c-0.6-0.6-0.8-0.7-1.1-0.5c0,0-0.1,0.7,0,1c0,0-1,0.4-0.9,0.7c0.2,0.4,1,0.4,1,0.4s0,1,0.4,1.2C26.4,5.8,26.8,4.7,26.8,4.7z"/>
	</g>
	<g>
		<path class="st13" d="M59.7,62.7c0,0,0.5,1,0.9,0.8c0.3-0.2,0.4-1.2,0.4-1.2c0.2,0,1-0.3,0.8-0.6c-0.2-0.3-1-0.5-1-0.5
			c0-0.9-0.1-1.1-0.4-1.1c0,0-0.5,0.4-0.7,0.7c0,0-1-0.5-1.1-0.1c-0.1,0.4,0.4,0.9,0.4,0.9s-0.7,0.7-0.5,1.1
			C58.7,63.1,59.7,62.7,59.7,62.7z"/>
	</g>
	<g>
		<path class="st13" d="M46.6,7.6c0,0-0.5,1-0.2,1.2c0.3,0.2,1.1-0.5,1.1-0.5c0.1,0.2,0.9,0.8,1.1,0.5c0.2-0.3-0.2-1-0.2-1
			c0.7-0.5,0.8-0.7,0.7-0.9c0,0-0.4-0.3-1-0.2c0,0-0.2-1.2-0.6-1c-0.4,0.2-0.4,0.9-0.4,0.9S46,6.2,45.9,6.7
			C45.8,7.1,46.6,7.6,46.6,7.6z"/>
	</g>
	<g>
		<path class="st13" d="M10.6,58.2c0,0-1,0.6-1.3,0.3c-0.2-0.3,0.2-1.1,0.2-1.1C9.4,57.3,8.9,57,9,56.8c0.3-0.5,1-0.3,1-0.3
			c0.1-0.4,0.3-0.9,0.5-0.9c0.1,0,0.5,0.3,0.6,0.8c0,0,0.9-0.2,1,0.2c0.1,0.2-0.5,0.7-0.5,0.7s0.4,0.9,0.1,1.2
			C11.5,58.9,10.6,58.2,10.6,58.2z"/>
	</g>
</g>
<g>
	<path class="st11" d="M25.8,28.3c0,0.2-0.1,0.5-0.4,0.5c-0.3,0-0.5-0.1-0.5-0.4c0-0.2,0.1-0.5,0.4-0.5C25.5,27.9,25.7,28,25.8,28.3
		z"/>
</g>
<g>
	<path class="st11" d="M29.3,15.5c0.2,0.1,0.3,0.3,0.2,0.6c-0.1,0.2-0.3,0.3-0.5,0.3s-0.3-0.3-0.2-0.6
		C28.8,15.5,29.1,15.4,29.3,15.5z"/>
</g>
<g>
	<path class="st11" d="M17.6,9.7c-0.1-0.1-0.1-0.4,0-0.5C17.8,9,18,9,18.1,9.1c0.1,0.1,0.1,0.4,0,0.5C18,9.8,17.7,9.8,17.6,9.7z"/>
</g>
<g>
	<path class="st11" d="M40.8,8.6c0.1,0.2,0,0.5-0.2,0.6C40.4,9.3,40.1,9.2,40,9c-0.1-0.2,0-0.5,0.2-0.6C40.4,8.3,40.7,8.4,40.8,8.6z
		"/>
</g>
<g>
	<path class="st15" d="M60.4,10.8c0.3,0,0.6,0.2,0.6,0.5c0,0.3-0.2,0.6-0.5,0.6c-0.3,0-0.6-0.2-0.6-0.5
		C59.9,11.1,60.1,10.8,60.4,10.8z"/>
</g>
<g>
	<path class="st11" d="M58.2,3.8c-0.2,0-0.3-0.2-0.3-0.4c0-0.2,0.2-0.3,0.3-0.3c0.2,0,0.3,0.2,0.3,0.4C58.5,3.6,58.4,3.8,58.2,3.8z"
		/>
</g>
<g>
	<path class="st11" d="M34.1,2.1c0.1,0.2,0,0.4-0.2,0.4c-0.2,0.1-0.4,0-0.4-0.1c-0.1-0.2,0-0.4,0.2-0.4C33.8,1.9,34,2,34.1,2.1z"/>
</g>
<g>
	<path class="st11" d="M68,27.8c0,0.2-0.1,0.4-0.4,0.4c-0.2,0-0.4-0.1-0.4-0.3c0-0.2,0.1-0.4,0.4-0.4C67.8,27.5,68,27.6,68,27.8z"/>
</g>
<g>
	<path class="st15" d="M54.6,57c-0.3,0.1-0.6,0-0.7-0.3c-0.1-0.3,0-0.6,0.2-0.7c0.3-0.1,0.6,0,0.7,0.3C55,56.6,54.9,56.9,54.6,57z"
		/>
</g>
<g>
	<path class="st15" d="M67.1,54.5c-0.2-0.1-0.4-0.4-0.3-0.6c0.1-0.3,0.4-0.4,0.6-0.3c0.2,0.1,0.4,0.4,0.3,0.6
		C67.6,54.5,67.3,54.6,67.1,54.5z"/>
</g>
<g>
	<path class="st11" d="M66.2,73.8c0,0.3-0.2,0.5-0.5,0.5c-0.3,0-0.5-0.2-0.5-0.5c0-0.3,0.2-0.5,0.5-0.5C66,73.3,66.2,73.5,66.2,73.8
		z"/>
</g>
<g>
	<path class="st11" d="M64.3,41.1c-0.1,0.3-0.4,0.4-0.7,0.3c-0.3-0.1-0.5-0.4-0.4-0.7c0.1-0.3,0.4-0.4,0.7-0.3
		C64.2,40.4,64.4,40.8,64.3,41.1z"/>
</g>
<g>
	<path class="st11" d="M29.7,64.3c0,0.3-0.3,0.4-0.6,0.4c-0.3,0-0.5-0.3-0.5-0.5c0-0.3,0.3-0.4,0.6-0.4
		C29.5,63.8,29.7,64.1,29.7,64.3z"/>
</g>
<g>
	<path class="st15" d="M33,74.1c-0.2,0-0.4-0.1-0.4-0.3c0-0.2,0.1-0.4,0.3-0.4c0.2,0,0.4,0.1,0.4,0.3C33.3,73.9,33.1,74.1,33,74.1z"
		/>
</g>
<g>
	<path class="st11" d="M16.8,71.7c-0.1,0.1-0.3,0-0.4-0.1c-0.1-0.2,0-0.3,0.1-0.4c0.1-0.1,0.3,0,0.4,0.1C17,71.4,17,71.6,16.8,71.7z
		"/>
</g>
<g>
	<path class="st11" d="M43.1,80.5c-0.1,0.2-0.4,0.2-0.6,0c-0.2-0.2-0.2-0.4-0.1-0.6c0.1-0.2,0.4-0.2,0.6,0
		C43.3,80.1,43.3,80.3,43.1,80.5z"/>
</g>
<g>
	<path class="st11" d="M17.8,48.4c0.2-0.2,0.5-0.2,0.8,0c0.2,0.2,0.2,0.6,0,0.8c-0.2,0.2-0.5,0.2-0.8,0
		C17.6,48.9,17.6,48.6,17.8,48.4z"/>
</g>
<g>
	<path class="st11" d="M14.4,29.3c-0.2,0.1-0.5,0-0.6-0.2c-0.1-0.2,0-0.5,0.2-0.6c0.2-0.1,0.5,0,0.6,0.2
		C14.7,28.9,14.7,29.2,14.4,29.3z"/>
</g>
<g>
	<path class="st15" d="M20.9,19.7c-0.1,0.3-0.4,0.5-0.7,0.4c-0.3-0.1-0.5-0.4-0.4-0.7c0.1-0.3,0.4-0.5,0.7-0.4
		C20.7,19.1,20.9,19.4,20.9,19.7z"/>
</g>
<g>
	<path class="st15" d="M10.3,40c-0.2-0.1-0.2-0.4-0.1-0.6c0.1-0.2,0.4-0.3,0.6-0.2c0.2,0.1,0.2,0.4,0.1,0.6
		C10.8,40.1,10.5,40.1,10.3,40z"/>
</g>
</svg>
