<?xml version="1.0" encoding="utf-8"?>
<!-- Generator: Adobe Illustrator 23.0.4, SVG Export Plug-In . SVG Version: 6.00 Build 0)  -->
<svg version="1.1" id="Layer_1" xmlns="http://www.w3.org/2000/svg" xmlns:xlink="http://www.w3.org/1999/xlink" x="0px" y="0px"
	 viewBox="0 0 80 72.73" style="enable-background:new 0 0 80 72.73;" xml:space="preserve">
<style type="text/css">
	.st0{opacity:0.8;fill:#EEEEEE;stroke:#EAEAEA;stroke-width:0.0905;stroke-miterlimit:10;}
	.st1{fill:#FFFFFF;}
	.st2{fill:#E3E3E3;}
	.st3{fill:#EEEEEE;}
	.st4{fill:#637AAA;}
	.st5{fill:#FF8F7F;}
	.st6{fill:#FFAC98;}
</style>
<path class="st0" d="M21.03,70.2c-1.66-0.36-21.59-3.59-20.12-27.43S4.22,11.76,11.97,9.14S38.56-5.9,53.34,5.9
	s30.73,22.39,24.4,41.23c-6.33,18.84-7.37,25.13-23.88,24.17S28.92,71.91,21.03,70.2z"/>
<g>
	<path class="st1" d="M30.68,15.66h21.67c0.11-2.08-0.93-4.16-2.77-5.13c-1.84-0.97-4.24-0.76-5.89,0.51
		c-1.48-1.27-3.01-2.58-4.88-3.15c-1.86-0.57-4.16-0.22-5.31,1.36c-0.8,1.09-0.9,2.58-0.51,3.87c-1.69-0.01-3.38,0.03-5.06,0.12
		c-0.96,0.05-2.27,0.33-2.32,1.29C25.53,15.97,30.68,15.66,30.68,15.66z"/>
	<path class="st1" d="M24.9,27.72c-0.4-0.21-0.86-0.25-1.3-0.15c-0.27,0.06-0.52,0.16-0.78,0.24c-0.5,0.15-0.54,0.28-0.74-0.15
		c-0.22-0.47,0.05-0.95-0.38-1.44c-0.31-0.35-0.77-0.56-1.24-0.56c-0.17,0-0.34,0.03-0.49,0.07c-0.33-0.77-0.7-1.5-1.33-2.1
		c-1.24-1.19-3.13-1.69-4.74-1.02c-0.72,0.3-1.36,0.79-1.87,1.38c-0.27,0.31-0.5,0.65-0.7,1c-0.18,0.32-0.26,0.74-0.48,1.04
		c-0.48-0.18-0.92-0.42-1.41-0.55c-0.97-0.27-2.03-0.32-2.88,0.31c-0.7,0.52-1.14,1.46-0.92,2.33C5.77,28.61,6,28.97,6.5,28.98
		c0.71,0.01,1.41,0,2.12,0c2.53,0,5.06,0,7.59,0c2.52,0,5.03,0,7.55,0c0.79,0,2.37,0,2.37,0S25.63,28.1,24.9,27.72z"/>
	<path class="st1" d="M57.18,30.54c-0.23-1.21,0.21-2.54,1.1-3.4c1.12-1.08,2.83-1.53,4.29-0.92c0.66,0.27,1.23,0.72,1.69,1.25
		c0.24,0.28,0.45,0.59,0.63,0.91c0.16,0.29,0.24,0.67,0.43,0.94c0.43-0.16,0.83-0.38,1.28-0.5c0.88-0.24,1.84-0.29,2.61,0.28
		c0.64,0.48,1.04,1.35,0.82,2.14c-0.08,0.28-0.29,0.74-0.6,0.77c-0.09,0.01-0.19,0-0.28,0c-0.85,0-1.7,0-2.56,0
		c-1.24,0-2.49,0-3.73,0c-1.14,0-2.27,0-3.41,0c-0.31,0-0.61,0-0.92,0c-0.16,0-0.32,0-0.48,0c-0.19,0-0.21-0.04-0.32-0.19
		C57.45,31.43,57.27,31,57.18,30.54z"/>
</g>
<g>
	<path class="st2" d="M31.16,66.78c0.02,0.07,0.16,0.15,0.46,0.23c1.35,0.38,6.02,0.44,8.34,0.45c3.38,0.02,6.96,0.05,10.24-0.1
		c2.48-0.11,5.37-0.41,2.9-0.84c-0.8-0.14-3-0.23-4.14-0.29c-2.59-0.15-5.3-0.26-8.04-0.24c-2,0.01-3.87,0.11-5.75,0.21
		C33.47,66.29,31.07,66.47,31.16,66.78z"/>
	<g>
		<path id="XMLID_8_" class="st3" d="M28.86,34.84l0,27.76c0,0.68,0.55,1.22,1.23,1.22l25.01,0c0.68,0,1.23-0.55,1.23-1.22l0-4.33
			l-0.02-2.38l0-26.37c0-0.68-0.55-1.22-1.23-1.22l-19.68,0L28.86,34.84L28.86,34.84z"/>
		<path class="st1" d="M56.33,58.33l-0.02-2.33l0-25.72c0-0.66-0.52-1.19-1.17-1.19l-18.7,0l-0.27,0.28l0,4.87
			c0,0.71-0.58,1.29-1.29,1.29l-3.9,0c-0.54,0-0.98,0.44-0.98,0.98l0,26.04c0,0.66,0.52,1.19,1.17,1.19l23.99,0
			c0.64,0,1.17-0.53,1.17-1.19L56.33,58.33z"/>
		<g id="XMLID_7_">
			<path class="st4" d="M28.67,34.78c0,1.05,0,2.1,0,3.15c0,2.47,0,4.93,0,7.4c0,2.85,0,5.7,0,8.54c0,2.24,0,4.47,0,6.71
				c0,0.57,0,1.13,0,1.7c0,0.09,0,0.17,0,0.26c0.02,0.76,0.6,1.29,1.35,1.32c1.16,0.04,2.32,0,3.48,0c2.59,0,5.19,0,7.78,0
				c2.76,0,5.52,0,8.29,0c1.71,0,3.41,0,5.12,0c0.74,0,1.54-0.18,1.78-1c0.11-0.38,0.05-0.84,0.05-1.23c0-0.7,0-1.39,0-2.09
				c0-1.37-0.02-2.73-0.02-4.1c0-1.66,0-3.32,0-4.98c0-2.73,0-5.47,0-8.2c0-2.7,0-5.4,0-8.09c0-1.52,0-3.03,0-4.55
				c0-0.83-0.49-1.47-1.37-1.5c-0.47-0.01-0.95,0-1.42,0c-2.42,0-4.84,0-7.27,0c-2.68,0-5.35,0-8.03,0c-0.81,0-1.63,0-2.44,0
				c-0.34,0-0.6-0.05-0.85,0.2c-1.7,1.7-3.4,3.4-5.1,5.09c-0.33,0.33-0.66,0.66-0.99,0.99C28.97,34.46,28.67,34.67,28.67,34.78
				c0,0.16,0.38,0.09,0.38-0.04c0,0.04-0.06,0.07,0.01,0.01c0.04-0.05,0.09-0.09,0.14-0.14c0.16-0.16,0.31-0.31,0.47-0.47
				c0.52-0.52,1.04-1.04,1.56-1.56c1.17-1.17,2.35-2.34,3.52-3.52c0.27-0.27,0.54-0.54,0.81-0.81c-0.08,0.03-0.15,0.05-0.23,0.08
				c1.15,0,2.3,0,3.45,0c2.47,0,4.94,0,7.41,0c2.27,0,4.53,0,6.8,0c0.6,0,1.19,0,1.79,0c0.1,0,0.19,0,0.29,0
				c0.63,0.05,1.04,0.57,1.06,1.18c0.03,1.1,0,2.2,0,3.3c0,2.26,0,4.51,0,6.77c0,2.6,0,5.19,0,7.79c0,2.08,0,4.15,0,6.23
				c0,0.85,0,1.7,0,2.55c0.02,1.96,0.02,3.92,0.02,5.87c0,0.47,0.05,0.96-0.32,1.33c-0.22,0.22-0.49,0.28-0.78,0.28
				c-0.45,0-0.9,0-1.35,0c-1.94,0-3.88,0-5.82,0c-2.57,0-5.13,0-7.7,0c-2.28,0-4.56,0-6.85,0c-1.05,0-2.11,0.04-3.16,0
				c-0.8-0.03-1.12-0.69-1.12-1.39c0-0.49,0-0.97,0-1.46c0-1.91,0-3.83,0-5.74c0-2.55,0-5.09,0-7.64c0-2.44,0-4.88,0-7.32
				c0-1.56,0-3.12,0-4.68c0-0.22,0-0.44,0-0.66C29.05,34.57,28.67,34.65,28.67,34.78z"/>
		</g>
		<path id="XMLID_6_" class="st1" d="M35.41,28.22l0,5.26c0,0.71-0.58,1.29-1.29,1.29l-5.26,0L35.41,28.22z"/>
		<g id="XMLID_3_">
			<path class="st4" d="M35.22,28.24c0,1.62,0,3.24,0,4.87c0,0.27,0.02,0.55-0.07,0.8c-0.18,0.53-0.65,0.74-1.17,0.74
				c-0.9,0-1.8,0-2.7,0c-0.79,0-1.57,0-2.36,0c0.03,0.05,0.06,0.11,0.08,0.16c1.92-1.92,3.83-3.83,5.75-5.75
				c0.27-0.27,0.54-0.54,0.81-0.81c0.16-0.16-0.21-0.18-0.31-0.08c-1.92,1.92-3.83,3.83-5.75,5.75c-0.27,0.27-0.54,0.54-0.81,0.81
				c-0.08,0.08-0.01,0.16,0.08,0.16c1.69,0,3.38,0,5.07,0c0.9,0,1.72-0.49,1.74-1.48c0.01-0.87,0-1.74,0-2.62c0-0.86,0-1.73,0-2.59
				C35.6,28.03,35.22,28.1,35.22,28.24z"/>
		</g>
	</g>
	<g>
		<g>
			<path class="st4" d="M36.47,47.84c3.37,0,6.74,0,10.11,0c0.48,0,0.96,0,1.44,0c0.14,0,0.4-0.22,0.15-0.22c-3.37,0-6.74,0-10.11,0
				c-0.48,0-0.96,0-1.44,0C36.47,47.62,36.22,47.84,36.47,47.84L36.47,47.84z"/>
		</g>
		<g>
			<path class="st4" d="M31.43,55.52c2.46,0,4.91,0,7.37,0c3.9,0,7.8,0,11.69,0c0.89,0,1.79,0,2.68,0c0.22,0,0.29-0.28,0.03-0.28
				c-2.46,0-4.91,0-7.37,0c-3.9,0-7.8,0-11.69,0c-0.89,0-1.79,0-2.68,0C31.25,55.24,31.17,55.52,31.43,55.52L31.43,55.52z"/>
		</g>
		<g>
			<path class="st4" d="M31.38,52.45c2.46,0,4.91,0,7.37,0c3.9,0,7.8,0,11.69,0c0.89,0,1.79,0,2.68,0c0.17,0,0.39-0.25,0.14-0.25
				c-2.46,0-4.91,0-7.37,0c-3.9,0-7.8,0-11.69,0c-0.89,0-1.79,0-2.68,0C31.35,52.2,31.12,52.45,31.38,52.45L31.38,52.45z"/>
		</g>
		<g>
			<path class="st4" d="M31.43,58.58c3.2,0,6.4,0,9.61,0c0.45,0,0.9,0,1.35,0c0.21,0,0.29-0.27,0.03-0.27c-3.2,0-6.4,0-9.61,0
				c-0.45,0-0.9,0-1.35,0C31.25,58.31,31.17,58.58,31.43,58.58L31.43,58.58z"/>
		</g>
		<g>
			<path class="st4" d="M38.47,41.49c-0.05,0.05,0.03-0.03,0.05-0.04c0.07-0.06,0.13-0.12,0.2-0.17c0.24-0.19,0.51-0.37,0.78-0.52
				c0.93-0.52,1.97-0.79,3.03-0.81c1.45-0.01,3.12,0.44,4.21,1.45c0.13,0.12,0.45-0.07,0.29-0.23c-1.18-1.1-3.03-1.56-4.6-1.52
				c-1.51,0.04-3.19,0.62-4.28,1.71C37.98,41.53,38.34,41.61,38.47,41.49L38.47,41.49z"/>
		</g>
		<circle class="st4" cx="37.01" cy="37.88" r="0.63"/>
		<circle class="st4" cx="48.01" cy="37.88" r="0.63"/>
	</g>
	<g>
		<path class="st5" d="M40.8,23.71l-18.16,2.17c-0.74,0.09-1.41-0.44-1.5-1.18l-1-8.36c-0.09-0.74,0.44-1.41,1.18-1.5l18.16-2.17
			c0.74-0.09,1.41,0.44,1.5,1.18l1,8.36C42.07,22.95,41.54,23.62,40.8,23.71z"/>
		<path class="st6" d="M40.8,23.71l-17.08,2.04c-0.74,0.09-1.41-0.44-1.5-1.18l-0.88-7.36c-0.09-0.74,0.44-1.41,1.18-1.5l17.08-2.04
			c0.74-0.09,1.41,0.44,1.5,1.18l0.88,7.36C42.07,22.95,41.54,23.62,40.8,23.71z"/>
		<g>
			<path class="st4" d="M40.82,23.58c-1.32,0.16-2.65,0.32-3.97,0.47c-2.63,0.31-5.27,0.63-7.9,0.94c-1.95,0.23-3.89,0.46-5.84,0.7
				c-0.14,0.02-0.29,0.04-0.43,0.05c-0.71,0.06-1.25-0.44-1.35-1.12c-0.12-0.78-0.19-1.58-0.28-2.36c-0.16-1.32-0.31-2.64-0.47-3.95
				c-0.06-0.49-0.12-0.98-0.18-1.48c-0.03-0.24-0.08-0.49-0.07-0.73c0.02-0.62,0.46-1.08,1.06-1.16c0.19-0.03,0.38-0.05,0.58-0.07
				c0.83-0.1,1.66-0.2,2.5-0.3c2.58-0.31,5.16-0.62,7.74-0.92c2.14-0.26,4.28-0.51,6.41-0.77c0.56-0.07,1.19-0.24,1.68,0.13
				c0.66,0.48,0.6,1.67,0.69,2.4c0.27,2.24,0.56,4.48,0.8,6.72C41.85,22.79,41.55,23.46,40.82,23.58c-0.19,0.03-0.3,0.29-0.04,0.25
				c0.84-0.13,1.47-0.8,1.39-1.68c-0.02-0.21-0.05-0.43-0.08-0.64c-0.15-1.23-0.29-2.46-0.44-3.7c-0.14-1.18-0.28-2.35-0.42-3.53
				c-0.04-0.3-0.05-0.62-0.17-0.89c-0.28-0.62-0.92-0.92-1.57-0.85c-1.54,0.14-3.09,0.37-4.63,0.55c-2.77,0.33-5.55,0.66-8.32,0.99
				c-1.71,0.2-3.42,0.39-5.12,0.61c-0.99,0.13-1.57,0.88-1.45,1.86c0.12,1.03,0.25,2.06,0.37,3.08c0.16,1.32,0.32,2.64,0.47,3.97
				c0.11,0.89,0.08,1.96,1.11,2.32c0.49,0.17,1.08,0.03,1.59-0.03c0.95-0.11,1.9-0.23,2.85-0.34c2.73-0.33,5.47-0.65,8.2-0.98
				c1.97-0.24,3.94-0.47,5.91-0.71c0.1-0.01,0.2-0.02,0.31-0.04C40.97,23.8,41.08,23.55,40.82,23.58z"/>
		</g>
		<g>
			<path class="st1" d="M26.25,22.5l-0.1-0.86l-2.32,0.28c-0.29,0.03-0.52-0.01-0.68-0.12c-0.16-0.11-0.26-0.29-0.28-0.51
				c-0.01-0.06,0-0.12,0.01-0.18c0.01-0.06,0.04-0.13,0.07-0.2c0.04-0.07,0.07-0.14,0.11-0.21c0.04-0.07,0.09-0.15,0.14-0.25
				l2.06-3.56c0.13-0.23,0.25-0.41,0.34-0.52c0.09-0.11,0.21-0.17,0.35-0.19c0.47-0.06,0.73,0.18,0.8,0.72l0.43,3.57l0.2-0.02
				c0.24-0.03,0.43-0.02,0.58,0.03c0.15,0.05,0.24,0.18,0.27,0.4c0.02,0.18-0.02,0.32-0.13,0.41c-0.11,0.1-0.28,0.16-0.51,0.19
				l-0.28,0.03l0.1,0.86c0.03,0.24,0,0.42-0.09,0.55c-0.09,0.13-0.22,0.2-0.4,0.22c-0.17,0.02-0.32-0.02-0.44-0.13
				C26.36,22.9,26.28,22.73,26.25,22.5z M24.04,20.85l1.98-0.24l-0.32-2.68L24.04,20.85z"/>
			<path class="st1" d="M33.4,18.88c0.06,0.5,0.08,0.94,0.06,1.31c-0.02,0.37-0.09,0.71-0.22,1.03c-0.17,0.39-0.4,0.7-0.71,0.94
				c-0.31,0.24-0.67,0.38-1.07,0.43c-0.47,0.06-0.9-0.03-1.3-0.25c-0.4-0.22-0.73-0.55-0.97-1c-0.13-0.24-0.23-0.52-0.31-0.82
				c-0.08-0.3-0.14-0.64-0.19-1c-0.06-0.46-0.08-0.89-0.08-1.26c0-0.38,0.04-0.71,0.12-0.99c0.13-0.46,0.35-0.83,0.67-1.11
				c0.32-0.27,0.72-0.44,1.2-0.5c0.32-0.04,0.61-0.02,0.88,0.05c0.27,0.07,0.52,0.2,0.73,0.37c0.22,0.18,0.41,0.4,0.58,0.68
				C33.09,17.24,33.29,17.95,33.4,18.88z M32.13,18.94c-0.07-0.56-0.16-1.02-0.27-1.37c-0.11-0.35-0.26-0.61-0.44-0.77
				c-0.18-0.16-0.41-0.23-0.7-0.2c-0.41,0.05-0.66,0.29-0.77,0.71c-0.11,0.43-0.11,1.07-0.01,1.92c0.07,0.58,0.16,1.05,0.27,1.41
				c0.11,0.36,0.26,0.63,0.44,0.8c0.18,0.17,0.41,0.24,0.68,0.21c0.28-0.03,0.49-0.16,0.63-0.37c0.14-0.22,0.22-0.51,0.24-0.88
				C32.22,20.01,32.2,19.53,32.13,18.94z"/>
			<path class="st1" d="M37.49,21.16l-0.1-0.86l-2.32,0.28c-0.29,0.03-0.52-0.01-0.68-0.12c-0.16-0.11-0.26-0.29-0.28-0.51
				c-0.01-0.06,0-0.12,0.01-0.18c0.01-0.06,0.04-0.13,0.07-0.2c0.04-0.07,0.07-0.14,0.11-0.21c0.04-0.07,0.09-0.15,0.14-0.25
				l2.06-3.56c0.13-0.23,0.25-0.41,0.34-0.52c0.09-0.11,0.21-0.17,0.35-0.19c0.47-0.06,0.73,0.18,0.8,0.72l0.43,3.57l0.2-0.02
				c0.24-0.03,0.43-0.02,0.58,0.03c0.15,0.05,0.24,0.18,0.27,0.4c0.02,0.18-0.02,0.32-0.13,0.41c-0.11,0.1-0.28,0.16-0.51,0.19
				l-0.28,0.03l0.1,0.86c0.03,0.24,0,0.42-0.09,0.55c-0.09,0.13-0.22,0.2-0.4,0.22c-0.17,0.02-0.32-0.02-0.44-0.13
				C37.59,21.56,37.51,21.39,37.49,21.16z M35.28,19.51l1.98-0.24l-0.32-2.68L35.28,19.51z"/>
		</g>
	</g>
	<g>
		<path class="st4" d="M56.16,41.93c0.01,0.75,0.49,1.58,0.94,2.15c1.05,1.37,2.69,2.03,4.37,2.23c0.17,0.02,0.39-0.22,0.14-0.25
			c-1.62-0.19-3.19-0.85-4.2-2.19c-0.39-0.52-0.85-1.34-0.86-1.98C56.53,41.71,56.15,41.78,56.16,41.93L56.16,41.93z"/>
	</g>
	<g>
		<path class="st4" d="M28.89,41.93c-0.73-0.04-1.51-0.41-2.14-0.73c-1.55-0.79-2.84-2-3.84-3.41c-0.11-0.15-0.46,0-0.35,0.17
			c1.02,1.44,2.33,2.65,3.89,3.46c0.68,0.35,1.52,0.75,2.31,0.79C28.96,42.22,29.15,41.94,28.89,41.93L28.89,41.93z"/>
	</g>
	<g>
		<path class="st4" d="M23.32,41.8c-0.25-2.1-0.49-4.2-0.74-6.3c-0.39-3.35-0.78-6.7-1.17-10.04c-0.09-0.77-0.18-1.53-0.27-2.3
			c-0.01-0.06-0.39,0.01-0.38,0.1c0.25,2.1,0.49,4.2,0.74,6.3c0.39,3.35,0.78,6.7,1.17,10.04c0.09,0.77,0.18,1.53,0.27,2.3
			C22.95,41.96,23.33,41.89,23.32,41.8L23.32,41.8z"/>
	</g>
	<g>
		<g>
			<path class="st4" d="M41.26,63.84c0,0.98,0,1.96,0,2.93c0,0.2,0.38,0.14,0.38-0.03c0-0.98,0-1.96,0-2.93
				C41.64,63.61,41.26,63.67,41.26,63.84L41.26,63.84z"/>
		</g>
		<g>
			<path class="st4" d="M43.55,63.84c0,0.98,0,1.96,0,2.93c0,0.19,0.38,0.13,0.38-0.03c0-0.98,0-1.96,0-2.93
				C43.93,63.62,43.55,63.68,43.55,63.84L43.55,63.84z"/>
		</g>
	</g>
</g>
</svg>
